<svg xmlns="http://www.w3.org/2000/svg" xmlns:xlink="http://www.w3.org/1999/xlink" width="284" height="35" viewBox="0 0 284 35">
    <defs>
        <path id="a" d="M0 .23h81.991v33.855H.001z"/>
    </defs>
    <g fill="none" fill-rule="evenodd">
        <path fill="#020303" d="M195.312 27.84V11.895h-.829l-3.72 9.102h-3.688l-3.72-9.102h-.829v15.943h-3.672V7.707h6.413l3.32 8.159h.779l3.32-8.159h6.298v20.132zM251.018 27.84l-7.871-14.085h-.815V27.84h-3.587V7.707h5.081l7.872 14.085h.816V7.707h3.586v20.132zM267.044 7.707v3.444h6.355v16.688h3.959V11.151h6.353V7.707zM155.647 24.574V19.34h9.753v-3.395h-13.782V28.17h14.611v-3.596zM151.618 11.093h14.118V7.53h-14.118zM102.865 24.574V19.34h9.753v-3.395H98.837V28.17h14.61v-3.596zM98.837 11.093h14.118V7.53H98.837zM215.88 24.574V19.34h9.752v-3.395H211.85V28.17h14.611v-3.596zM211.85 11.093h14.118V7.53H211.85zM130.063 24.607v-16.9h-3.958v16.9h-.012v3.477h13.387v-3.477z"/>
        <g transform="translate(.488 .496)">
            <mask id="b" fill="#fff">
                <use xlink:href="#a"/>
            </mask>
            <path fill="#231F20" d="M5.732 3.13c-1.561 0-2.83 1.27-2.83 2.83v22.393a2.834 2.834 0 0 0 2.83 2.832H76.26c1.56 0 2.83-1.27 2.83-2.832V5.961c0-1.56-1.27-2.83-2.83-2.83H5.732zM76.26 34.086H5.732A5.738 5.738 0 0 1 0 28.353V5.961C0 2.8 2.571.229 5.732.229H76.26a5.739 5.739 0 0 1 5.731 5.732v22.392a5.739 5.739 0 0 1-5.731 5.733z" mask="url(#b)"/>
        </g>
        <path fill="#020303" d="M24.965 25.002v3.162H9.708V7.455h14.879v3.161H13.189v5.336h9.02v3.104h-9.02v5.946zM36.367 16.91h5.482c2.929 0 4.002-1.218 4.002-3.19 0-2.03-1.073-3.191-4.002-3.191h-5.482v6.381zm13.022-3.219c0 2.552-1.102 4.438-3.103 5.423l3.19 9.05h-3.538l-2.93-8.296c-.609.058-1.217.058-1.826.058h-4.815v8.238h-3.481V7.454h9.455c4.467 0 7.048 2.35 7.048 6.237zM62.184 19.114h6.439l-2.64-8.265h-1.188l-2.611 8.265zm7.454 3.103h-8.44l-1.885 5.947h-3.54l6.875-20.71h5.626l6.904 20.71h-3.626l-1.914-5.947z"/>
    </g>
</svg>
