<svg xmlns="http://www.w3.org/2000/svg" xmlns:xlink="http://www.w3.org/1999/xlink" width="109" height="21" viewBox="0 0 109 21">
    <defs>
        <path id="a" d="M0 .25h108.125V12.74H0z"/>
    </defs>
    <g fill="none" fill-rule="evenodd">
        <g transform="translate(0 8.044)">
            <mask id="b" fill="#fff">
                <use xlink:href="#a"/>
            </mask>
            <path fill="#000" d="M9.282 12.43V1.125h2.313v4.461h4.578V1.124h2.313v11.307h-2.313V7.775h-4.578v4.656H9.282zM20.09 1.125h6.994v2.187H22.4v2.217h3.775v2.187h-3.772v2.531h4.681v2.185H20.09V1.124zm11.288 2.187h-.52v3.38c.078.007.15.01.225.01h.004c1.093 0 2.272-.445 2.272-1.711v-.005c-.004-1.108-.953-1.674-1.976-1.674h-.005zm-2.83 9.12V1.124h2.835c2.297 0 4.285 1.463 4.285 3.882v.002c0 2.46-2.119 3.878-4.411 3.878v.002c-.133 0-.266-.005-.399-.005v3.548h-2.31zm10.615-9.12v9.12h-2.316V1.124h5.884v2.187h-3.568zm5.767 3.493h.002v.002h-.002a3.748 3.748 0 0 0 3.762 3.745h.003a3.74 3.74 0 0 0 2.668-1.107 3.734 3.734 0 0 0 1.095-2.638h-.003v-.005h.003c0-.97-.378-1.916-1.033-2.622-.658-.696-1.599-1.15-2.73-1.15h-.003c-1.14 0-2.081.454-2.73 1.15a3.852 3.852 0 0 0-1.032 2.625zM42.62 6.79v-.005a5.72 5.72 0 0 1 1.949-4.36C45.722 1.405 47.238.84 48.692.84V.838h.003V.84c1.454 0 2.97.566 4.122 1.585a5.72 5.72 0 0 1 1.95 4.36h.001v.007h-.002c0 1.74-.733 3.227-1.86 4.28a6.208 6.208 0 0 1-4.211 1.666v.004h-.003v-.004a6.199 6.199 0 0 1-4.21-1.665 5.793 5.793 0 0 1-1.861-4.283zm15.4-3.479v9.12h-2.314V1.124h6.356l-.005 2.187h-4.037zm8.913 3.685l-.955-1.979-.964 1.98h1.92zm.974 2.091h-3.869l-1.633 3.344h-2.49L66.015.249l6.05 12.182H69.52l-1.612-3.344zm7.376-5.808h-.52v3.38c.076.003.147.005.22.005h.005c1.097 0 2.272-.44 2.272-1.706V4.95c0-1.109-.953-1.674-1.974-1.674v.002h-.003zm-2.833 9.152V1.09H75.287v.004c2.297 0 4.285 1.46 4.285 3.875v.005c-.003 2.46-2.116 3.88-4.409 3.88h-.005c-.13 0-.26 0-.393-.005v3.582H72.45zM84.98 6.996l-.96-1.979-.964 1.98h1.924zm.971 2.091h-3.873l-1.628 3.344h-2.487L84.056.249l6.058 12.182h-2.547L85.95 9.087zm4.544 3.344V1.124h2.313v4.461h4.58V1.124h2.311v11.307h-2.31V7.775h-4.58v4.656h-2.314zm12.938 0V3.307h-2.373l-.01-2.183h7.078v2.187l-2.38-.004v9.124h-2.315zM.006 4.058L0 4.046V1.408A5.952 5.952 0 0 1 2.592.826H2.6c1.39 0 2.833.509 3.928 1.507 1.097.996 1.846 2.483 1.846 4.423v.002c-.003 1.905-.713 3.403-1.775 4.418a5.696 5.696 0 0 1-3.923 1.562v.004A5.964 5.964 0 0 1 0 12.115v-2.63c.813.603 1.628 1.05 2.675 1.05 1.665 0 2.963-1.244 3.259-2.81H1.298v-2.14h4.629C5.577 3.982 4.13 3.011 2.57 3.01v.002h-.006c-1.04 0-1.778.417-2.559 1.047z" mask="url(#b)"/>
        </g>
        <path fill="#000" d="M3.456 4.182L4 4.306c-.261 1.05-.85 1.573-1.768 1.573-.605 0-1.079-.24-1.418-.726-.348-.49-.517-1.088-.517-1.8 0-.733.178-1.32.538-1.768.357-.442.838-.667 1.445-.667.89 0 1.468.513 1.72 1.537l-.561.11c-.206-.758-.596-1.138-1.164-1.138-.423 0-.749.174-.98.526-.231.355-.35.85-.35 1.49 0 .585.121 1.053.36 1.405.235.353.551.527.94.527.61 0 1.01-.396 1.21-1.193M5.286 5.785v-3.1h-.975v-.426h2.514v.425h-.989v3.101zM7.92 3.51v.995c.037.265.149.485.341.664.193.174.39.261.598.261.238 0 .451-.108.637-.316.185-.208.279-.57.279-1.083 0-.45-.087-.79-.252-1.033-.17-.24-.392-.362-.669-.362-.22 0-.414.09-.59.256-.17.172-.287.38-.344.619zm0 3.468h-.545v-4.72h.49v.685c.247-.522.62-.786 1.113-.786.421 0 .753.174 1.01.527.261.344.387.788.387 1.32 0 .574-.133 1.03-.394 1.371-.266.337-.602.504-1.012.504-.444 0-.793-.208-1.05-.632v1.731zM13.35 4.02a8.598 8.598 0 0 0-.51-.017c-.433 0-.77.07-1.01.21a.685.685 0 0 0-.362.62c0 .175.066.322.197.443.13.121.316.18.56.18.33 0 .603-.12.816-.359.213-.238.316-.522.316-.843 0-.068-.002-.146-.007-.233m.61 1.766h-.546a7.2 7.2 0 0 1-.064-.637c-.242.485-.655.73-1.234.73-.399 0-.703-.105-.914-.316a1.011 1.011 0 0 1-.318-.75c0-.358.149-.651.453-.88.305-.231.82-.344 1.544-.344.098 0 .254.003.47.01 0-.278-.021-.482-.067-.603a.539.539 0 0 0-.273-.3c-.14-.073-.323-.11-.552-.11-.556 0-.88.213-.97.637l-.507-.092c.124-.65.641-.97 1.558-.97.483 0 .833.102 1.035.32.201.215.304.59.304 1.117v1.503c0 .25.023.479.08.685M17.437 5.785h-.633l-.897-1.433-.919 1.433h-.531l1.184-1.827-1.07-1.7h.628l.758 1.205.77-1.204h.524l-1.026 1.577zM19.193 5.43a.864.864 0 0 0 .703-.348c.193-.23.284-.587.284-1.074 0-.488-.098-.846-.297-1.063-.2-.222-.429-.33-.694-.33a.873.873 0 0 0-.694.332c-.19.222-.28.575-.28 1.058 0 .509.09.875.28 1.093a.885.885 0 0 0 .698.332m-.041.449c-.486 0-.863-.179-1.134-.536-.27-.36-.405-.804-.405-1.335 0-.56.151-1.01.456-1.347a1.492 1.492 0 0 1 1.138-.502c.488 0 .87.177 1.154.532.277.35.42.79.42 1.321 0 .55-.152.996-.454 1.347-.305.346-.696.52-1.175.52M22.178 5.356h1.097c.415 0 .62-.2.62-.595 0-.415-.205-.621-.62-.621h-1.097v1.216zm0-1.63h1.097c.344 0 .522-.182.522-.541 0-.33-.178-.5-.522-.5h-1.097v1.04zm-.55 2.058V2.257h1.647c.724 0 1.081.284 1.081.855 0 .38-.2.645-.605.79.497.142.745.444.745.909 0 .289-.085.522-.257.703-.17.179-.407.27-.71.27h-1.9zM27.511 4.02a8.724 8.724 0 0 0-.513-.017c-.433 0-.77.07-1.01.21a.681.681 0 0 0-.357.62c0 .175.064.322.192.443s.319.18.559.18c.332 0 .605-.12.818-.359.215-.238.318-.522.318-.843 0-.068-.005-.146-.007-.233m.605 1.766h-.545a5.526 5.526 0 0 1-.06-.637c-.245.485-.655.73-1.241.73-.396 0-.696-.105-.91-.316a1.011 1.011 0 0 1-.318-.75c0-.358.151-.651.456-.88.3-.231.818-.344 1.541-.344.099 0 .257.003.472.01 0-.278-.023-.482-.066-.603a.552.552 0 0 0-.275-.3c-.14-.073-.325-.11-.552-.11-.557 0-.88.213-.971.637l-.509-.092c.126-.65.644-.97 1.56-.97.486 0 .831.102 1.038.32.203.215.304.59.304 1.117v1.503c0 .25.025.479.076.685M31.13 3.927V2.686h-.955c-.403 0-.6.215-.6.64 0 .404.183.6.552.6h1.003zm0 1.86V4.355h-.971l-.793 1.432h-.57l.87-1.533c-.462-.142-.691-.453-.691-.934 0-.371.107-.639.323-.806.213-.172.474-.257.78-.257h1.597v3.53h-.545zM36.578 3.943l-.733-2.29-.742 2.29h1.475zm1.219 1.843h-.612l-.48-1.395H34.94l-.429 1.395h-.499l1.548-4.768h.68l1.556 4.768zM40.018 3.498l1.241 2.287h-.618l-1.028-1.932-.72.842v1.09h-.545V2.26h.545v1.33c0 .254-.007.444-.023.577.122-.178.239-.327.346-.45l1.303-1.457h.6l-1.101 1.239zM41.728 5.785V2.26h.55v3.098h1.543V2.26h.547v3.098h.525v1.24h-.405l-.07-.812zM45.966 5.45v.334h-.55V2.257h.55v1.855c0 .257-.01.527-.025.813.151-.245.305-.467.458-.668l1.23-1.622v-.378h.547v3.527h-.547V4.007c0-.327.007-.598.023-.806a5.689 5.689 0 0 1-.463.655L45.966 5.45zM50.556 5.43c.281 0 .513-.117.703-.348.187-.23.279-.587.279-1.074 0-.488-.094-.846-.295-1.063-.197-.222-.429-.33-.692-.33a.87.87 0 0 0-.694.332c-.188.222-.284.575-.284 1.058 0 .509.096.875.284 1.093.19.222.421.332.699.332m-.04.449c-.487 0-.867-.179-1.135-.536-.27-.36-.408-.804-.408-1.335 0-.56.153-1.01.458-1.347a1.484 1.484 0 0 1 1.136-.502c.49 0 .873.177 1.152.532.282.35.421.79.421 1.321 0 .55-.15.996-.45 1.347-.305.346-.697.52-1.173.52M52.94 5.785V2.26h.548v1.458h1.686V2.26h.55v3.526h-.55V4.148h-1.686v1.637zM59.092 3.663a1.556 1.556 0 0 0-.096-.53.907.907 0 0 0-.307-.39.841.841 0 0 0-.522-.166.94.94 0 0 0-.694.296c-.19.194-.295.456-.318.79h1.937zm.035 1.074l.51.103a1.482 1.482 0 0 1-.547.747 1.57 1.57 0 0 1-.953.293c-.483 0-.872-.167-1.17-.509-.298-.339-.451-.783-.451-1.333 0-.56.156-1.012.467-1.36a1.5 1.5 0 0 1 1.166-.518c.462 0 .833.159 1.113.477.28.318.424.8.433 1.436H57.13c0 .531.112.89.332 1.079.229.183.465.277.714.277.447 0 .765-.23.95-.692zM61.068 3.51v.995c.034.265.148.485.338.664.19.174.388.261.596.261.24 0 .456-.108.637-.316.19-.208.279-.57.279-1.083 0-.45-.085-.79-.252-1.033-.167-.24-.387-.362-.666-.362-.218 0-.413.09-.589.256-.172.172-.289.38-.343.619zm0 3.468h-.55v-4.72h.492v.685c.25-.522.623-.786 1.116-.786.419 0 .75.174 1.01.527.254.344.387.788.387 1.32 0 .574-.135 1.03-.399 1.371-.26.337-.6.504-1.01.504-.446 0-.792-.208-1.046-.632v1.731zM64.316 5.785V2.26h.545v1.458h1.688V2.26h.547v3.526h-.547V4.148h-1.688v1.637zM70.326 4.02a8.598 8.598 0 0 0-.511-.017c-.433 0-.77.07-1.008.21-.24.145-.364.35-.364.62 0 .175.066.322.197.443.128.121.314.18.561.18.33 0 .6-.12.815-.359a1.23 1.23 0 0 0 .321-.843c0-.068-.007-.146-.011-.233m.607 1.766h-.548a7.812 7.812 0 0 1-.06-.637c-.24.485-.654.73-1.238.73-.397 0-.699-.105-.912-.316a1.02 1.02 0 0 1-.318-.75c0-.358.15-.651.455-.88.303-.231.82-.344 1.549-.344.094 0 .25.003.465.01 0-.278-.023-.482-.065-.603a.543.543 0 0 0-.274-.3c-.14-.073-.323-.11-.552-.11-.557 0-.882.213-.971.637l-.507-.092c.124-.65.644-.97 1.558-.97.488 0 .831.102 1.035.32.202.215.307.59.307 1.117v1.503c0 .25.025.479.076.685M73.943 3.927V2.686h-.955c-.398 0-.598.215-.598.64 0 .404.184.6.552.6h1.001zm0 1.86V4.355h-.97l-.79 1.432h-.574l.87-1.533c-.457-.142-.686-.453-.686-.934 0-.371.105-.639.323-.806.213-.172.474-.257.778-.257h1.597v3.53h-.548zM81.172 5.785h-.655l-1.425-2.629-1.09 1.358v1.271h-.598V1.017h.598v2.767l2.155-2.767h.644l-1.29 1.667zM83.058 5.43c.278 0 .511-.117.699-.348.19-.23.284-.587.284-1.074 0-.488-.099-.846-.296-1.063-.199-.222-.432-.33-.698-.33a.861.861 0 0 0-.69.332c-.187.222-.283.575-.283 1.058 0 .509.096.875.284 1.093a.88.88 0 0 0 .7.332m-.045.449c-.484 0-.862-.179-1.134-.536-.273-.36-.403-.804-.403-1.335 0-.56.149-1.01.453-1.347a1.492 1.492 0 0 1 1.139-.502c.49 0 .872.177 1.154.532.282.35.421.79.421 1.321 0 .55-.153.996-.455 1.347-.303.346-.694.52-1.175.52M85.44 5.785V2.26h.896l1.049 3.04 1.106-3.04h.838v3.526h-.527V2.737h-.043L87.65 5.785h-.593l-1.092-3.094h-.044v3.094zM90.378 5.785V2.26h2.656v3.526h-.552v-3.1h-1.555v3.1zM96.265 4.02a8.536 8.536 0 0 0-.51-.017c-.433 0-.772.07-1.01.21a.685.685 0 0 0-.362.62c0 .175.066.322.197.443.126.121.316.18.56.18.33 0 .603-.12.816-.359a1.23 1.23 0 0 0 .32-.843c0-.068-.004-.146-.01-.233m.606 1.766h-.543a5.216 5.216 0 0 1-.064-.637c-.242.485-.655.73-1.239.73-.394 0-.698-.105-.909-.316a1.013 1.013 0 0 1-.32-.75c0-.358.15-.651.455-.88.305-.231.82-.344 1.544-.344.096 0 .254.003.47.01 0-.278-.024-.482-.067-.603a.53.53 0 0 0-.273-.3c-.14-.073-.323-.11-.552-.11-.556 0-.881.213-.973.637l-.504-.092c.124-.65.644-.97 1.558-.97.487 0 .833.102 1.035.32.201.215.309.59.309 1.117v1.503c0 .25.023.479.073.685M97.868 5.785V2.26h.55v1.458h1.683V2.26h.55v3.526h-.55V4.148h-1.684v1.637zM102.244 5.45v.334h-.545V2.257h.545v1.855c0 .257-.005.527-.02.813.146-.245.304-.467.455-.668l1.23-1.622v-.378h.55v3.527h-.55V4.007c0-.327.009-.598.023-.806a5.594 5.594 0 0 1-.46.655l-1.228 1.594zM107.52 3.927V2.686h-.955c-.399 0-.6.215-.6.64 0 .404.183.6.554.6h1zm0 1.86V4.355h-.971l-.788 1.432h-.575l.87-1.533c-.458-.142-.687-.453-.687-.934 0-.371.106-.639.323-.806.21-.172.474-.257.779-.257h1.598v3.53h-.55z"/>
    </g>
</svg>
