<svg xmlns="http://www.w3.org/2000/svg" xmlns:xlink="http://www.w3.org/1999/xlink" width="116" height="25" viewBox="0 0 116 25">
    <defs>
        <path id="a" d="M.07.362h3.846V5.51H.07z"/>
    </defs>
    <g fill="none" fill-rule="evenodd">
        <path fill="#000" d="M68.197 15.27h2.64V4.65h-7.814V5.94c0 4.631-.587 6.353-2.408 7.011v2.31c.69-.07 4.827-.783 4.855-7.63v-.705h2.727v8.342zM60.79 4.648h-7.461v10.62h2.656V6.989h4.804zM76.284 11.228l1.3-3.328 1.284 3.328h-2.584zm2.631-6.67h-2.617L71.945 15.27h2.788l.79-1.984h4.092l.796 1.984h2.843L78.915 4.559zM104.228 15.275V4.668h-2.513l-4.631 6.306V4.668h-2.625v10.607h2.512l4.628-6.19v6.19zM109.263 13.01v-1.976h5.44V8.946h-5.44V7.174h5.953V4.67h-8.581v10.604h8.656v-2.265zM47.26 12.716a2.79 2.79 0 0 1-.836.14 2.825 2.825 0 0 1-2.603-1.752 2.904 2.904 0 0 1 0-2.234 2.821 2.821 0 0 1 2.603-1.752c.292 0 .57.055.835.14a2.855 2.855 0 0 1 1.992 2.728c0 1.29-.84 2.364-1.992 2.73m-.835-8.26c-1.834 0-3.482.926-4.487 2.342-.003.003-.006.006-.009.006-1.179 1.623-2.716 6.011-5.862 6.011-1.97 0-3.044-1.49-2.929-3.072.113-1.578 1.466-2.768 3.023-2.653.862.064 1.595.524 2.069 1.185l1.559-2.218a5.352 5.352 0 0 0-3.438-1.62c-2.998-.22-5.607 2.07-5.824 5.116-.22 3.045 2.033 5.692 5.03 5.915.201.014.4.017.598.011h.025c1.27 0 2.702-.553 3.642-1.264a8.333 8.333 0 0 0 1.697-1.73c.917 1.796 2.785 3.033 4.906 3.033 3.009 0 5.444-2.477 5.444-5.532 0-3.053-2.435-5.53-5.444-5.53M91.029 11.992l-.22.207-.012-.006a2.913 2.913 0 0 1-1.928.747c-1.62 0-2.94-1.342-2.94-2.986 0-1.645 1.32-2.984 2.94-2.984.83 0 1.62.367 2.179 1.003l.105-.097 1.3-1.85c-1.011-.99-2.322-1.538-3.703-1.538-2.967 0-5.38 2.452-5.38 5.466 0 3.014 2.413 5.465 5.38 5.465 1.505 0 2.948-.66 3.976-1.818l-1.697-1.609zM69.964 22.988c-.796 0-1.399-.664-1.399-1.504 0-.846.59-1.51 1.36-1.51.519 0 .871.245 1.175.567l.36-.388c-.352-.383-.804-.689-1.526-.689-1.113 0-1.95.929-1.95 2.02 0 1.102.837 2.019 1.95 2.019.716 0 1.174-.314 1.554-.747l-.375-.352c-.3.33-.664.584-1.149.584M71.982 20.055h1.364v3.361h.573v-3.36h1.364v-.51h-3.3z"/>
        <g transform="translate(76.036 19.102)">
            <mask id="b" fill="#fff">
                <use xlink:href="#a"/>
            </mask>
            <path fill="#000" d="M1.993 3.88c-.708 0-1.378-.6-1.378-1.498S1.285.877 1.993.877c.722 0 1.342.584 1.342 1.496 0 .954-.604 1.507-1.342 1.507M2.098.362c-.7 0-1.15.397-1.46.86V.445H.07V5.51h.567V3.575c.295.432.753.82 1.46.82.92 0 1.819-.749 1.819-2.013 0-1.287-.907-2.02-1.818-2.02" mask="url(#b)"/>
        </g>
        <path fill="#000" d="M83.628 21.992c0 .615-.568 1.042-1.268 1.042-.515 0-.958-.287-.958-.772 0-.476.405-.79 1.113-.79.465 0 .832.08 1.113.162v.358zm-1.078-2.504c-.559 0-.964.135-1.383.328l.168.471c.356-.165.708-.278 1.158-.278.716 0 1.126.36 1.126 1.05v.118a3.964 3.964 0 0 0-1.162-.163c-.965 0-1.628.433-1.628 1.265 0 .804.708 1.218 1.421 1.218.67 0 1.105-.312 1.37-.656v.576h.559V21.05c0-.493-.133-.868-.397-1.138-.273-.275-.692-.424-1.232-.424zM88.65 19.547h-.633l-1.127 1.496-1.127-1.496h-.65l1.438 1.898-1.496 1.97h.634l1.184-1.579 1.18 1.579h.655l-1.501-1.981zM91.095 22.988c-.802 0-1.408-.672-1.408-1.504 0-.83.567-1.51 1.394-1.51.801 0 1.413.68 1.413 1.51 0 .832-.573 1.504-1.4 1.504m0-3.524c-1.148 0-1.989.929-1.989 2.02 0 1.107.835 2.019 1.976 2.019 1.149 0 1.994-.926 1.994-2.02 0-1.104-.837-2.019-1.98-2.019M95.935 22.92h-1.268v-1.247h1.193c.62 0 .95.223.95.597 0 .403-.33.65-.875.65zm-1.268-2.878h1.185c.493 0 .76.223.76.545 0 .405-.316.62-.774.62h-1.17v-1.165zm1.888 1.36c.314-.134.63-.38.63-.89 0-.583-.484-.966-1.245-.966H94.1v3.87h1.909c.838 0 1.383-.404 1.383-1.055 0-.545-.383-.832-.837-.958zM100.928 21.992c0 .615-.568 1.042-1.267 1.042-.515 0-.959-.287-.959-.772 0-.476.405-.79 1.113-.79.466 0 .832.08 1.113.162v.358zm-1.077-2.504c-.56 0-.964.135-1.383.328l.168.471c.355-.165.708-.278 1.157-.278.716 0 1.127.36 1.127 1.05v.118a3.964 3.964 0 0 0-1.163-.163c-.964 0-1.628.433-1.628 1.265 0 .804.708 1.218 1.422 1.218.669 0 1.104-.312 1.369-.656v.576h.559V21.05c0-.493-.132-.868-.397-1.138-.272-.275-.691-.424-1.231-.424zM105.442 21.215h-2.193v-1.667h-.567v3.868h.567v-1.691h2.193v1.691h.568v-3.868h-.568zM107.843 22.606v-3.058h-.567v3.868h.545l2.268-3.061v3.06h.567v-3.867h-.55zM112.262 21.252c.08-.746.582-1.303 1.237-1.303.752 0 1.15.601 1.215 1.303h-2.452zm1.254-1.787c-1.055 0-1.827.898-1.827 2.019 0 1.204.854 2.02 1.898 2.02.722 0 1.188-.29 1.57-.725l-.355-.323c-.308.331-.677.549-1.2.549-.67 0-1.26-.471-1.34-1.29h3.02c.008-.088.008-.148.008-.2 0-1.136-.647-2.05-1.774-2.05zM21.527 9.932v-.003c.133-.408.199-.835.199-1.265 0-2.242-1.797-4.069-4.003-4.069a4.018 4.018 0 0 0-3.45 2.003v-.01l-.057.115c-.036.066-.07.132-.102.195l-2.524 4.968a1.5 1.5 0 0 1-1.32.796c-.829 0-1.504-.686-1.504-1.53v-.079c.011-.65.342-2.02 2.356-4.11 2.562-2.662 4.906-3.439 4.937-3.45a6.712 6.712 0 0 1 2.636-.534c3.772 0 6.838 3.116 6.838 6.945 0 3.832-3.066 6.95-6.838 6.95a6.7 6.7 0 0 1-2.102-.335c2.587-2.055 4.248-4.273 4.934-6.587m-15.066-.05l-.006.02c-.127.396-.187.81-.187 1.23 0 2.243 1.796 4.067 4.003 4.067a4.01 4.01 0 0 0 3.463-2.025v.006l.024-.053c.047-.082.094-.17.135-.264l2.444-4.796.033-.075.006-.014a1.506 1.506 0 0 1 1.347-.845c.829 0 1.504.686 1.504 1.531v.094h.003c-.011.647-.334 2.008-2.323 4.072-2.565 2.661-4.94 3.493-4.961 3.499l-.006.002a6.688 6.688 0 0 1-2.603.524c-3.769 0-6.838-3.119-6.838-6.95 0-3.83 3.069-6.946 6.838-6.946.71 0 1.413.11 2.085.328C8.813 5.36 7.144 7.579 6.461 9.882M18.629.432A9.196 9.196 0 0 0 14 1.684 9.208 9.208 0 0 0 9.336.42C4.187.419 0 4.675 0 9.904c0 5.234 4.188 9.49 9.337 9.49 1.636 0 3.248-.44 4.661-1.264a9.22 9.22 0 0 0 4.631 1.248c5.138 0 9.323-4.248 9.323-9.474 0-5.22-4.185-9.471-9.323-9.471"/>
    </g>
</svg>
