<svg xmlns="http://www.w3.org/2000/svg" xmlns:xlink="http://www.w3.org/1999/xlink" width="49" height="56" viewBox="0 0 49 56">
    <defs>
        <path id="a" d="M0 .122h48.104v50.513H0z"/>
        <path id="c" d="M.13.618h33.603V7.64H.13z"/>
    </defs>
    <g fill="none" fill-rule="evenodd">
        <g transform="translate(.5 .424)">
            <mask id="b" fill="#fff">
                <use xlink:href="#a"/>
            </mask>
            <path fill="#000" d="M32.341 1.863c1.658 3.17-3.018 5.723-2.475 9.126.318 1.347 2.244 1.161 3.17.542C35.91 8.783 38.012.403 43.49 1.68c.184.041.37.095.56.158 1.483.5 1.649 2.188.74 3.398-.462 1.082-4.84 4.582-4.684 5.899.927 1.39 7.768-3.039 7.997-.563.115 3.719-5.748 5.254-7.89 6.161-.813.344-.495 1.187.275 1.279 2.399.287 6.93-1.17 6.685 1.805-.698 3.992-8.043 2.545-8.043 2.56a18.179 18.179 0 0 0-1.467-.107c-1.05-.013-1.332 1.205-.385 1.702 2.64 1.675 11.989-.062 9.15 5.025-3.004 5.381-11.676.153-15.244-1.3-.864-.35-2.922-.511-2.555.928 1.936 4.949 13.512 4.307 9.436 9.818-4.052 5.487-14.084-6.63-16.318-4.095-1.1 2.2 3.938 4.597 1.215 6.14-4.024 2.283-8.515-.285-12.648-.091-9.304.433-12.129 10.34-6.2 10.134.051-.005.064.02.005.03-1.986.327-2.997-.483-3.583-1.357-.864-1.28-.63-3.115.328-5.287 1.269-2.886 3.673-5.247 4.216-7.552a61.21 61.21 0 0 0 1.62-12.75c.045-1.877.61-4.681 3.316-4.368 1.487.405 2.45 2.616 3.469 3.808v.025c.428.41.873.599 1.38.364.869-.92.996-3.772.043-5.249-1.665-2.583-3.782-4.75-3.402-8.122.287-2.552 1.923-4.837 4.54-5.79 4.792-1.74 2.757 7.715 2.729 9.28-.02 1.242-.046 2.574 1.502 3.384 1.549.308 2.33-1.062 2.764-2.244.583-1.694.858-3.963 1.357-6.21.403-2.378 4.957-12.34 7.944-6.63M10.807 34.302c3.084-4.22 6.777-7.832 9.52-10.142 3.895-3.283 8.75-6.097 11.082-6.94.958-.38 1.258.43.22.825-2.553 1.148-7.15 3.665-11.078 6.866-2.715 2.221-6.685 5.772-9.805 9.686-1.6 2.168-.405.304.06-.295" mask="url(#b)"/>
        </g>
        <path fill="#000" d="M9.28 44.93l.007-.172a1.208 1.208 0 0 0-.115-.039l-.104-.015a2.142 2.142 0 0 0-.153-.007c-.262.002-.458.086-.588.252a.899.899 0 0 0-.194.57c0 .25.074.446.217.594.14.15.338.229.59.229a.93.93 0 0 0 .36-.064l-.018-.165c-.138.046-.25.068-.339.068a.582.582 0 0 1-.42-.16c-.122-.104-.183-.273-.186-.502 0-.198.054-.359.16-.481a.537.537 0 0 1 .423-.181c.115 0 .235.023.36.074zm.183-.21v.162h.484v1.437h.186v-1.437h.484v-.163H9.463zm1.668 2.279v-.815l-.008-.15h.01c.049.089.11.163.192.219.079.056.17.089.275.089a.653.653 0 0 0 .466-.194c.13-.13.196-.338.201-.631-.005-.535-.227-.81-.667-.82a.45.45 0 0 0-.423.232c-.023.043-.043.08-.056.122h-.01v-.332h-.181l.013.311V47h.188zm0-1.482c0-.125.015-.232.048-.321a.536.536 0 0 1 .12-.199.389.389 0 0 1 .298-.135c.046 0 .097.008.153.028.053.02.102.056.15.107.051.048.09.115.12.199.03.089.043.196.043.32a.93.93 0 0 1-.043.314.538.538 0 0 1-.12.206.435.435 0 0 1-.15.105.412.412 0 0 1-.153.035.46.46 0 0 1-.298-.14.573.573 0 0 1-.12-.206.862.862 0 0 1-.048-.313zm1.63-.535a.965.965 0 0 1 .461-.12c.09 0 .158.015.206.043.051.034.087.077.107.123.02.048.033.094.041.142v.176h-.1a5.45 5.45 0 0 0-.27.008c-.096.01-.193.033-.287.068a.543.543 0 0 0-.234.163.463.463 0 0 0-.097.306c0 .125.043.232.13.316.084.086.211.135.377.135a.759.759 0 0 0 .27-.054.526.526 0 0 0 .234-.242h.008v.273h.168l-.01-.349v-.677c0-.062-.003-.123-.01-.191a.5.5 0 0 0-.072-.192.401.401 0 0 0-.163-.155.627.627 0 0 0-.298-.058c-.178 0-.334.035-.46.096v.189zm.815.527v.112c-.005.37-.165.553-.479.555a.282.282 0 0 1-.216-.084.284.284 0 0 1-.09-.214.31.31 0 0 1 .06-.196.36.36 0 0 1 .142-.112.853.853 0 0 1 .204-.05c.068-.006.137-.011.208-.011h.171zm.624-.79l.517.747-.555.853h.227l.364-.578.081-.14h.003l.079.14.354.578h.255l-.574-.853.487-.747h-.23l-.282.464-.084.15h-.005l-.087-.147-.3-.467h-.25zm1.551.8c.003.25.069.448.199.596.127.148.3.227.517.227a.668.668 0 0 0 .525-.227c.127-.148.193-.346.193-.596s-.066-.45-.193-.598a.66.66 0 0 0-.525-.224.65.65 0 0 0-.517.224c-.13.147-.196.346-.199.598zm.204 0c0-.163.04-.313.122-.446a.43.43 0 0 1 .39-.21c.18.002.313.073.395.21.081.133.12.283.12.446 0 .163-.039.31-.12.443-.082.14-.214.212-.395.214a.428.428 0 0 1-.39-.214.829.829 0 0 1-.122-.443zm1.66-.8v1.6h.65c.02 0 .059-.005.117-.013a.572.572 0 0 0 .176-.048.385.385 0 0 0 .163-.133.43.43 0 0 0 .069-.252.412.412 0 0 0-.08-.257.365.365 0 0 0-.216-.138v-.007a.339.339 0 0 0 .212-.326.423.423 0 0 0-.115-.303c-.079-.08-.201-.12-.362-.123h-.613zm.19.163h.41c.065 0 .116.008.155.026.04.018.07.04.089.071a.206.206 0 0 1 .05.092.505.505 0 0 1 .008.09.229.229 0 0 1-.038.14.29.29 0 0 1-.1.076.37.37 0 0 1-.101.025c-.03.005-.051.005-.064.005h-.41v-.525zm0 .688h.412c.137.003.231.033.288.092a.29.29 0 0 1 .081.211.268.268 0 0 1-.079.191.332.332 0 0 1-.102.064.437.437 0 0 1-.158.025h-.443v-.583zm1.532-.588a.948.948 0 0 1 .459-.12c.089 0 .158.015.206.043.051.034.087.077.107.123.02.048.036.094.04.142.003.046.003.087.003.12v.056h-.101c-.08 0-.169.003-.268.008-.1.01-.196.033-.29.068a.543.543 0 0 0-.235.163.463.463 0 0 0-.096.306c0 .125.043.232.13.316.084.086.21.135.379.135a.757.757 0 0 0 .267-.054.526.526 0 0 0 .235-.242h.007v.273h.169l-.008-.349v-.677c0-.062-.005-.123-.013-.191a.54.54 0 0 0-.069-.192.426.426 0 0 0-.165-.155.62.62 0 0 0-.298-.058 1.05 1.05 0 0 0-.459.096v.189zm.815.527v.112c-.005.37-.168.553-.481.555a.282.282 0 0 1-.216-.084.284.284 0 0 1-.09-.214.31.31 0 0 1 .059-.196.35.35 0 0 1 .145-.112.803.803 0 0 1 .201-.05c.07-.006.14-.011.21-.011h.172zm1.75-.79H21.3c-.16.003-.283.054-.36.148a.487.487 0 0 0-.086.5.49.49 0 0 0 .079.127.523.523 0 0 0 .209.125l-.365.7h.23l.328-.662h.38v.662h.188v-1.6zm-.188.163v.612h-.367c-.115 0-.199-.036-.247-.1a.32.32 0 0 1 0-.415c.048-.06.132-.094.247-.097h.367zm1.446-.163v1.6h.186v-.792h.01l.767.792h.268l-.841-.853.759-.747h-.244l-.709.703h-.01v-.703h-.186zm1.43.8c.002.25.068.448.198.596.127.148.3.227.517.227a.668.668 0 0 0 .525-.227c.127-.148.19-.346.193-.596-.002-.25-.066-.45-.193-.598a.663.663 0 0 0-.525-.224.65.65 0 0 0-.517.224c-.13.147-.196.346-.199.598zm.203 0c0-.163.04-.313.122-.446a.43.43 0 0 1 .39-.21c.18.002.313.073.395.21.081.133.12.283.12.446 0 .163-.039.31-.12.443-.082.14-.214.212-.395.214-.176-.002-.308-.074-.39-.214a.829.829 0 0 1-.122-.443zm1.928-.8h-.267v1.6h.188V45.18l-.015-.257h.01l.092.257.473 1.139h.16l.485-1.139.084-.257h.01l-.015.257v1.139h.188v-1.6h-.237l-.501 1.185-.087.214h-.013l-.06-.214-.495-1.185zm1.946 0v1.6h.188v-1.437h.81v1.437h.189v-1.6h-1.187zm1.79.263a.963.963 0 0 1 .459-.12c.089 0 .158.015.209.043.05.034.086.077.107.123a.593.593 0 0 1 .038.142c.002.046.002.087.002.12v.056h-.099c-.081 0-.17.003-.27.008-.1.01-.193.033-.29.068a.52.52 0 0 0-.232.163.45.45 0 0 0-.097.306c0 .125.044.232.128.316a.513.513 0 0 0 .38.135.736.736 0 0 0 .267-.054.53.53 0 0 0 .236-.242h.005v.273h.169l-.008-.349v-.677c0-.062-.003-.123-.01-.191a.6.6 0 0 0-.072-.192.409.409 0 0 0-.165-.155.62.62 0 0 0-.298-.058 1.05 1.05 0 0 0-.459.096v.189zm.815.527v.112c-.005.37-.165.553-.48.555a.282.282 0 0 1-.217-.084.282.282 0 0 1-.087-.214.31.31 0 0 1 .201-.308.832.832 0 0 1 .201-.05c.07-.006.14-.011.212-.011h.17zm.734-.79v1.6h.188v-.749h.838v.749h.189v-1.6h-.189v.688h-.838v-.688h-.188zm1.755 0v1.6h.211l.797-1.172.102-.168h.01l-.002.168v1.172h.188v-1.6h-.211l-.797 1.17-.105.17h-.007l.002-.168V44.72h-.188zm2.865 0h-.6c-.161.003-.284.054-.363.148a.498.498 0 0 0-.084.5c.02.048.046.091.077.127a.72.72 0 0 0 .107.079c.035.02.069.035.104.046l-.367.7h.23l.33-.662h.38v.662h.186v-1.6zm-.186.163v.612h-.367c-.117 0-.198-.036-.25-.1a.336.336 0 0 1-.073-.206c0-.076.025-.148.074-.209.05-.06.132-.094.25-.097h.366z"/>
        <g transform="translate(3.822 47.606)">
            <mask id="d" fill="#fff">
                <use xlink:href="#c"/>
            </mask>
            <path fill="#000" d="M11.465 7.637a.904.904 0 0 1-.803-.451c-.527-.858.471-1.976-.237-2.802-.478.25-1.029.42-1.523.464l-1.548 2.57H5.698l1.197-1.984C5.47 6.447 3.472 7.675 1.641 7.637.716 7.619.105 6.898.13 6.284a.651.651 0 0 1 .585-.647c.612-.091.93.579.316.963.107 1.5 3.27-.155 4.147-2.114l.04-.091c-1.665.348-3.362.2-4.93-.135-.072-.016-.138-.054.01-.046 1.693.122 3.522-.059 5.234-.62.463-1.357.415-2.314-.326-2.46-.461-.089-1.47.197-2.231.765.18.491-.43.975-.798.631-.216-.206-.066-.578.326-.881C3.296 1.048 4.198.635 5.395.633c1.997-.003 2.407 2.1.762 4.289a7.12 7.12 0 0 1-.787.878c.687-.333 1.507-.886 2.249-1.571L9.656.847h1.656L9.284 4.214C11.566 3.72 12.54.742 14.71.62c.5-.028.97.194 1.236.723.708 1.467-1.526 1.74-.991.293-.609-.657-2.114 1.202-3.887 2.369.79.27 1.006 1.06.683 1.818-.125.293-.527 1.02-.074 1.197 1.21.48 3.512-2.355 4.126-3.377L17.488.847h1.658l-2.42 4.016c-.244.372-1.403 2.242-.206 2.096 1.44-.12 2.812-2.03 3.46-3.163l1.797-2.95h1.658l-2.873 4.771c-.178.268-.82 1.35-.237 1.347 2.611-.547 4.29-6.604 7.448-6.329.575.049.983.43.94 1.503.909-1.024 1.698-1.444 2.732-1.505.999-.061 1.801.415 1.243 2.063-.346.817-.901 1.553-1.38 2.297-.38.586-1.324 2.038-.377 2.038.762-.11 1.742-.915 2.56-1.686.186-.181.354-.034.147.183-.568.718-2.292 2.111-3.356 2.114-1.618.002-1.06-1.956-.332-3.169L30.6 3.4c.244-.375 1.41-2.24.214-2.094-1.437.122-2.835 2.02-3.482 3.15l-1.775 2.96H23.9l2.873-4.768c.179-.267.884-1.334.235-1.347-2.736.471-4.328 6.566-7.448 6.33-.575-.044-.98-.431-.94-1.504-.909 1.022-1.696 1.445-2.73 1.506-1 .06-1.762-.382-1.205-2.033-.415.522-1.686 2.038-3.221 2.038" mask="url(#d)"/>
        </g>
    </g>
</svg>
