<svg xmlns="http://www.w3.org/2000/svg" width="118" height="14" viewBox="0 0 118 14">
    <path fill="#000" fill-rule="evenodd" d="M114.348.418l-1.544 5.04h-.749l-1.5-5.04h-2.96l2.21 6.46-2.377 6.54h2.96l1.71-5.167h.749l1.707 5.167h2.96l-2.375-6.54 2.165-6.46h-2.956zm-16.463 0l-1.25 13h2.793l.292-3.084h3.041l.291 3.084h2.793l-1.25-13h-6.71zm2.46 2.753h1.75l.417 4.373H99.93l.415-4.373zM86.134.418v13h2.75V9.503h5.959V.418h-8.71zm2.75 6.335h3.166V3.21h-3.166v3.542zM75.385.418v2.793h2.956v10.207h2.793V3.211h2.957V.418h-8.706zm-10.626 0v13h8.667V9.376h-2.793v1.252h-3.126V3.211h3.166v1.247h2.792V.418H64.76zM53.8.418v13h8.706V9.376h-2.792v1.252h-3.166V3.211h3.166v1.247h2.792V.418H53.8zm-11.046 13h8.709v-13h-8.71v13zm2.792-2.79h3.166V3.211h-3.166v7.417zM32.962.418v13h2.793V3.211h4.918V.418h-7.711zm-10.96 0v13h8.71V9.376h-2.793v1.252h-3.166V3.211h3.166v1.247h2.793V.418h-8.71zm-11 13h8.708v-13h-8.709v13zm2.747-2.79h3.166V3.211H13.75v7.417zM0 .418v13h2.79V9.503H8.75V.418H0zm2.79 6.335h3.166V3.21H2.79v3.542z"/>
</svg>
