<svg xmlns="http://www.w3.org/2000/svg" xmlns:xlink="http://www.w3.org/1999/xlink" width="79" height="23" viewBox="0 0 79 23">
    <defs>
        <path id="a" d="M.48.463h21.601V23.25H.481z"/>
        <path id="c" d="M.112.463h18.702V23.23H.112z"/>
    </defs>
    <g fill="none" fill-rule="evenodd">
        <g transform="translate(56.3 -.424)">
            <mask id="b" fill="#fff">
                <use xlink:href="#a"/>
            </mask>
            <path fill="#000" d="M16.771 11.87c0-3.161-1.53-6.83-5.505-6.83-3.604 0-5.504 3.1-5.504 6.83 0 4.197 2.34 6.834 5.504 6.834 3.975 0 5.505-3.63 5.505-6.833m5.31 0c0 6.624-4.412 11.38-10.904 11.38C5.042 23.252.48 18.886.48 11.872.48 4.338 5.897.462 11.384.462c5.26 0 10.697 3.674 10.697 11.409" mask="url(#b)"/>
        </g>
        <g transform="translate(36.02 -.424)">
            <mask id="d" fill="#fff">
                <use xlink:href="#c"/>
            </mask>
            <path fill="#000" d="M18.814 21.177c-1.3.872-4.031 2.053-7.758 2.053C3.73 23.23.112 18.176.112 12 .112 5.05 5.029.463 11.456.463c3.185 0 5.226.53 7.037 1.416l-1.855 4.285c-1.381-.58-2.974-.92-4.862-.92-4.645 0-6.221 2.78-6.221 6.616 0 4.143 2.115 6.83 5.8 6.83 1.337 0 2.337-.285 2.646-.488V14.35h-3.74l.004-4.36h8.547l.002 11.188z" mask="url(#d)"/>
        </g>
        <path fill="#000" d="M29.397 7.562c0-.92-.333-1.66-.993-2.162-.66-.52-1.572-.776-2.674-.793-.123-.002-.597 0-.885.012-.28.007-1.03.077-1.265.119v6.286c.342.042 1.048.075 1.623.075 1.223 0 2.362-.34 3.082-.898.724-.583 1.112-1.516 1.112-2.639zm.42 14.883c-.727-2.65-1.945-4.669-2.947-5.962-.849-1.088-1.507-1.32-1.507-1.32-.686.016-1.156.014-1.783-.012v7.294h-5.113V.625a39.674 39.674 0 0 1 2.976-.377 38.575 38.575 0 0 1 3.52-.158c1.723 0 3.188.19 4.39.57 1.204.38 2.185.904 2.95 1.564a5.823 5.823 0 0 1 1.683 2.386 7.42 7.42 0 0 1 .542 2.827c0 1.325-.325 2.606-1.028 3.704-.625.974-1.676 1.971-2.762 2.657v.095c2.43 1.112 3.804 4.69 5.139 8.552h-6.06zM.5 17.221V.4h15.015l.005 4.69H5.613v3.775h8.384l.007 4.45h-8.39v2.36c0 1.483.87 2.109 2.006 2.109l8.304-.003.007 4.664H5.685C1.85 22.445.5 20.674.5 17.221"/>
    </g>
</svg>
