<svg xmlns="http://www.w3.org/2000/svg" xmlns:xlink="http://www.w3.org/1999/xlink" width="82" height="32" viewBox="0 0 82 32">
    <defs>
        <path id="a" d="M.423.108h11.485v16.264H.423z"/>
        <path id="c" d="M0 .006h28.919v30.606H0z"/>
    </defs>
    <g fill="none" fill-rule="evenodd">
        <g transform="translate(69.82 7.223)">
            <mask id="b" fill="#fff">
                <use xlink:href="#a"/>
            </mask>
            <path fill="#000" d="M11.578 12.175s-1.735.263-3.8.263c-2.48 0-2.975-.875-2.975-2.886V7.016c0-2.099.413-2.974 2.975-2.974 1.817 0 3.552.263 3.552.263l.33-3.848S9.43.107 7.448.107C2.242.108.423 1.945.423 6.318v3.847c0 4.81 2.314 6.208 7.024 6.208 1.9 0 4.462-.35 4.462-.35l-.33-3.847z" mask="url(#b)"/>
        </g>
        <path fill="#000" d="M55.537 11.615h4.297v11.718h4.462V11.615h4.296l.247-3.936H55.29zM46.448 21.759l2.397-5.947h.248l.495 7.52h4.296l-.99-15.652h-4.132l-3.553 8.92h-.248l-3.8-8.92h-4.049l-.992 15.653h4.214l.413-7.521h.248l2.644 5.947z"/>
        <g transform="translate(.757 .678)">
            <mask id="d" fill="#fff">
                <use xlink:href="#c"/>
            </mask>
            <path fill="#000" d="M28.919 3.067v24.485c0 1.66-1.322 3.06-2.893 3.06H2.892c-1.57 0-2.892-1.4-2.892-3.06V3.067C0 1.405 1.322.006 2.892.006h23.134c1.571 0 2.893 1.399 2.893 3.06M14.459 26.59c5.37 0 7.85-4.547 7.85-9.093 0-6.384-4.132-13.555-7.85-13.555-3.635 0-7.849 7.258-7.849 13.642 0 4.46 2.396 9.006 7.85 9.006" mask="url(#d)"/>
        </g>
        <path fill="#FFF" d="M23.066 18.173c0 4.547-2.48 9.095-7.85 9.095-5.454 0-7.849-4.548-7.849-9.007 0-6.384 4.214-13.642 7.85-13.642 3.717 0 7.849 7.171 7.849 13.554"/>
    </g>
</svg>
