<svg xmlns="http://www.w3.org/2000/svg" xmlns:xlink="http://www.w3.org/1999/xlink" width="15" height="23" viewBox="0 0 15 23">
    <defs>
        <filter id="a" width="187.4%" height="318.6%" x="-43.3%" y="-109.9%" filterUnits="objectBoundingBox">
            <feGaussianBlur in="SourceGraphic" stdDeviation="2"/>
        </filter>
        <linearGradient id="d" x1="50%" x2="50%" y1="0%" y2="100%">
            <stop offset="0%" stop-color="#F4F4F4"/>
            <stop offset="17.051%" stop-color="#EDEDED"/>
            <stop offset="23.883%" stop-color="#FFF"/>
            <stop offset="34.542%" stop-color="#FFF"/>
            <stop offset="81.677%" stop-color="#FFF"/>
            <stop offset="83.573%" stop-color="#F9F9F9"/>
            <stop offset="100%" stop-color="#F4F4F4"/>
        </linearGradient>
        <path id="c" d="M4.369.48h7.371a3.84 3.84 0 0 1 0 7.68H4.369c-.933 0-1.485-.139-1.974-.4A2.726 2.726 0 0 1 1.26 6.626C.999 6.136.86 5.584.86 4.652v-.663c0-.933.14-1.485.4-1.974A2.726 2.726 0 0 1 2.396.881c.489-.261 1.041-.4 1.974-.4z"/>
        <filter id="b" width="113.6%" height="126%" x="-10.2%" y="-6.5%" filterUnits="objectBoundingBox">
            <feOffset dx="-1" dy="1" in="SourceAlpha" result="shadowOffsetOuter1"/>
            <feColorMatrix in="shadowOffsetOuter1" values="0 0 0 0 0 0 0 0 0 0 0 0 0 0 0 0 0 0 0.146880463 0"/>
        </filter>
        <linearGradient id="e" x1="50%" x2="50%" y1="0%" y2="100%">
            <stop offset="0%" stop-color="#838383"/>
            <stop offset="11.528%"/>
            <stop offset="18.379%" stop-color="#B6B6B6"/>
            <stop offset="79.531%" stop-color="#484848"/>
            <stop offset="86.025%" stop-color="#171717"/>
            <stop offset="99.608%" stop-color="#3B3B3B"/>
            <stop offset="100%" stop-color="#060606"/>
        </linearGradient>
        <linearGradient id="f" x1="50%" x2="50%" y1="0%" y2="100%">
            <stop offset="0%" stop-color="#838383"/>
            <stop offset="11.528%"/>
            <stop offset="18.379%" stop-color="#B6B6B6"/>
            <stop offset="79.531%" stop-color="#484848"/>
            <stop offset="86.025%" stop-color="#171717"/>
            <stop offset="99.608%" stop-color="#3B3B3B"/>
            <stop offset="100%" stop-color="#060606"/>
        </linearGradient>
        <filter id="g" width="734.6%" height="297.9%" x="-317.3%" y="-99%" filterUnits="objectBoundingBox">
            <feGaussianBlur in="SourceGraphic" stdDeviation="1"/>
        </filter>
    </defs>
    <g fill="none" fill-rule="evenodd" transform="rotate(-90 10.1 8.9)">
        <path fill="#000" d="M3.596 4.36l8.71-.923a1.765 1.765 0 0 1 1.749 2.576l-.146.277c-.417.794-.736 1.233-1.121 1.6-.386.37-.82.633-1.324.807-.504.173-1.04.256-1.937.262l-7.155.05A1.73 1.73 0 0 1 .694 6.813c.14-.503.337-.925.594-1.27.256-.346.574-.614.957-.81.383-.195.832-.318 1.351-.374z" filter="url(#a)" opacity=".24"/>
        <use fill="#000" filter="url(#b)" xlink:href="#c"/>
        <use fill="url(#d)" xlink:href="#c"/>
        <path fill="url(#e)" d="M10.99 1.586h.11c.707 0 1.28.573 1.28 1.28v2.958a1.28 1.28 0 0 1-1.28 1.28h-.11c-.311 0-.495-.047-.658-.134a.909.909 0 0 1-.378-.378c-.088-.163-.134-.347-.134-.658V2.755c0-.31.046-.495.134-.658a.909.909 0 0 1 .378-.378c.163-.087.347-.133.658-.133z"/>
        <path fill="url(#f)" d="M4.06 2.4c.53 0 .96.43.96.96v1.92a.96.96 0 0 1-1.92 0V3.36c0-.53.43-.96.96-.96z"/>
        <path fill="#FF2121" d="M1.18 2.4a.32.32 0 0 1 .321.321v2.893a.32.32 0 1 1-.641 0V2.721a.32.32 0 0 1 .32-.32z"/>
        <rect width="1" height="3.031" x=".556" y="2.805" fill="#FFB804" filter="url(#g)" rx=".5"/>
    </g>
</svg>
