<svg xmlns="http://www.w3.org/2000/svg" width="269" height="36" viewBox="0 0 269 36">
    <path fill="#FFF" d="M27.328 35v-7.872H10v-5.424h16.368v-7.536H10V8.696h17.328V.824H.88V35h26.448zm10.128 0c.528-2.208 1.104-4.416 1.68-6.624h12.768c.576 2.208 1.152 4.416 1.68 6.624H62.8C59.824 22.52 56.32 11.48 51.76.824H39.376C34.816 11.48 31.312 22.52 28.288 35h9.168zm8.063-27.262c1.393 3.55 2.833 7.966 4.177 12.718h-8.4c1.31-4.472 2.62-8.647 3.97-12.084l.253-.634zm30.961 28.03c9.12 0 14.64-3.792 14.64-10.8 0-6.336-4.224-9.408-11.664-10.944l-2.832-.576c-2.688-.528-3.744-1.584-3.744-2.976 0-1.536 1.152-2.496 4.8-2.496 3.504 0 6.72.672 9.792 1.872l2.928-7.2C86.896 1.016 82.672.056 77.392.056c-10.176 0-14.064 5.328-14.064 10.56 0 6.672 4.944 9.456 10.512 10.848l2.592.624c4.08 1.008 5.088 1.728 5.088 3.168 0 1.92-1.44 2.592-5.04 2.592-3.216 0-6.816-1.104-10.08-2.88l-3.36 7.104c4.128 2.304 8.928 3.696 13.44 3.696zM113.248 35V19.832L125.44 1.016V.824h-9.792l-7.104 11.184L101.488.824H91.36v.192l12.192 18.816h.048V35h9.648zm40.704 0v-7.824H142.48l1.728-1.296c6.576-5.04 9.504-8.688 9.504-14.16 0-7.008-5.424-11.664-13.104-11.664-6.432 0-11.568 3.36-13.248 9.696l8.208 2.16c.864-2.4 2.304-3.696 4.8-3.696s4.272 1.68 4.272 3.84c0 2.736-1.248 4.416-4.896 7.392l-11.424 9.408V35h25.632zm14.208 0V24.536h5.712c.96 1.392 1.968 3.12 2.832 4.896.912 1.92 1.632 3.792 2.256 5.568h9.792v-.192c-.816-2.256-1.776-4.656-2.88-6.912-1.008-2.112-2.256-4.272-3.744-6.432 3.36-2.16 5.136-5.376 5.136-9.408 0-5.52-3.6-11.232-13.248-11.232H159.04V35h9.12zm5.808-17.952h-5.808V8.312h5.808c2.448 0 4.32 1.632 4.32 4.368 0 2.784-1.872 4.368-4.32 4.368zM200.752 35V.824h-9.12V35h9.12zm18.768 0c12 0 19.392-7.44 19.392-17.088S231.52.824 219.52.824h-13.008V35h13.008zm0-7.872h-3.888V8.696h3.888c5.28 0 10.08 3.024 10.08 9.216 0 6.192-4.8 9.216-10.08 9.216zM268.72 35v-7.872h-17.328v-5.424h16.368v-7.536h-16.368V8.696h17.328V.824h-26.448V35h26.448z"/>
</svg>
