<svg id="Слой_1" data-name="Слой 1" xmlns="http://www.w3.org/2000/svg" xmlns:xlink="http://www.w3.org/1999/xlink" viewBox="0 0 44.29 38.19">
  <defs>
    <mask id="mask" x="0" y="0" width="44.29" height="38.19" maskUnits="userSpaceOnUse">
      <g id="b">
        <path id="a" d="M0,0H44.29V38.19H0V0Z" fill="#fff"/>
      </g>
    </mask>
  </defs>
  <title>logo-sm</title>
  <g mask="url(#mask)">
    <path d="M30.91,38.19l-14.08-9.9L2.21,25,0,12.73,14.22,0,40.61,5.89l3.68,20.36Z" fill="#f3ea7d"/>
  </g>
  <path d="M30.93,29.08A1.54,1.54,0,0,1,30.85,26h0.08a1.54,1.54,0,0,1,0,3.08M29.4,11.71a1.54,1.54,0,1,1,1.54,1.54,1.54,1.54,0,0,1-1.54-1.54M23.84,19.6a1.54,1.54,0,0,1-.08-3.08h0.08a1.54,1.54,0,0,1,0,3.08M9.47,16.38A1.54,1.54,0,1,1,11,14.84a1.54,1.54,0,0,1-1.54,1.54M31.52,24.9V14.35a2.71,2.71,0,1,0-3.3-2.65A2.67,2.67,0,0,0,28.58,13l-3.16,2.83a2.69,2.69,0,0,0-4,1l-9.21-2.06h0A2.74,2.74,0,1,0,11.92,16L21.13,18h0a2.71,2.71,0,1,0,5.43,0,2.68,2.68,0,0,0-.36-1.32l3.16-2.83a2.68,2.68,0,0,0,1,.44V24.9a2.72,2.72,0,1,0,1.18,0" fill="#040608"/>
</svg>
