<?xml version="1.0" encoding="UTF-8"?>
<svg width="91px" height="39px" viewBox="0 0 91 39" version="1.1" xmlns="http://www.w3.org/2000/svg" xmlns:xlink="http://www.w3.org/1999/xlink">
    <!-- Generator: Sketch 57.1 (83088) - https://sketch.com -->
    <title>Group 27</title>
    <desc>Created with Sketch.</desc>
    <defs>
        <polygon id="path-1" points="0 37.7119207 90.2133103 37.7119207 90.2133103 0.000196551724 0 0.000196551724"></polygon>
    </defs>
    <g id="Russian" stroke="none" stroke-width="1" fill="none" fill-rule="evenodd">
        <g id="sdl_element_v2.3" transform="translate(-23.000000, -22.000000)">
            <g id="Group-27" transform="translate(23.022618, 22.755044)">
                <path d="M59.8437759,6.90774483 C59.741569,6.4596069 59.4035,6.27091724 58.8217069,6.27091724 C58.3270517,6.27091724 57.9025,6.46746897 57.9025,6.90774483 C57.9025,7.2766069 58.2169828,7.41091724 58.601569,7.48102069 L59.6472241,7.66971034 C60.5271207,7.82695172 61.1711552,8.30653793 61.1711552,9.31222759 C61.1711552,10.2471586 60.4406379,11.0798828 58.9160517,11.0798828 C57.5021897,11.0798828 56.6301552,10.3729517 56.5200862,9.26505517 L57.7138103,9.26505517 C57.8160172,9.88550345 58.3578448,10.0741931 58.9632241,10.0741931 C59.5764655,10.0741931 59.9931552,9.81474483 59.9931552,9.36726207 C59.9931552,8.92698621 59.6937414,8.74615862 59.2305345,8.6681931 L58.1619483,8.47884828 C57.2348793,8.31374483 56.7238448,7.78764138 56.7238448,6.94705517 C56.7238448,6.01998621 57.4786034,5.26522759 58.8380862,5.26522759 C60.0553966,5.26522759 60.9202241,5.8941931 61.0375,6.90774483 L59.8437759,6.90774483 Z" id="Fill-1" fill="#221E1F"></path>
                <polygon id="Fill-3" fill="#221E1F" points="62.2508138 5.36736897 64.0820207 5.36736897 64.9933655 7.60674828 65.1506069 7.60674828 66.0619517 5.36736897 67.8610552 5.36736897 67.8610552 10.9776103 66.7688828 10.9776103 66.7688828 6.60105862 66.6116414 6.60105862 65.5908828 9.09988621 64.5216414 9.09988621 63.5002276 6.60105862 63.3429862 6.60105862 63.3429862 10.9776103 62.2508138 10.9776103"></polygon>
                <path d="M70.5601034,8.4398 L72.0846897,8.4398 L71.4956897,6.49131724 L71.1491034,6.49131724 L70.5601034,8.4398 Z M72.3991724,9.46121379 L70.2613448,9.46121379 L69.806,10.9779379 L68.650931,10.9779379 L70.4349655,5.36769655 L72.2497931,5.36769655 L74.0410345,10.9779379 L72.8545172,10.9779379 L72.3991724,9.46121379 Z" id="Fill-5" fill="#221E1F"></path>
                <path d="M76.0087793,7.86619655 L77.3132276,7.86619655 C77.9965724,7.86619655 78.2560207,7.59888621 78.2560207,7.12781724 C78.2560207,6.60892069 77.9651241,6.39664483 77.1952966,6.39664483 L76.0087793,6.39664483 L76.0087793,7.86619655 Z M79.4504,7.1120931 C79.4504,7.81116207 79.1522966,8.33005862 78.6170207,8.6130931 L79.4582621,10.9782655 L78.2796069,10.9782655 L77.5248483,8.86402414 L76.0087793,8.86402414 L76.0087793,10.9782655 L74.8379862,10.9782655 L74.8379862,5.36736897 L77.478331,5.36736897 C78.7198828,5.36736897 79.4504,6.01992069 79.4504,7.1120931 L79.4504,7.1120931 Z" id="Fill-7" fill="#221E1F"></path>
                <polygon id="Fill-9" fill="#221E1F" points="84.6789379 6.39684138 82.934869 6.39684138 82.934869 10.9778069 81.7640759 10.9778069 81.7640759 6.39684138 80.0193517 6.39684138 80.0193517 5.36756552 84.6789379 5.36756552"></polygon>
                <path d="M60.566169,17.6073655 C60.566169,16.6331241 60.1501345,15.8469172 59.0186517,15.8469172 L57.9972379,15.8469172 L57.9972379,19.3678138 L59.0186517,19.3678138 C60.1501345,19.3678138 60.566169,18.5737448 60.566169,17.6073655 M61.7690655,17.6073655 C61.7690655,19.2891931 60.8885138,20.4128138 59.1673759,20.4128138 L56.8264448,20.4128138 L56.8264448,14.8019172 L59.1673759,14.8019172 C60.8885138,14.8019172 61.7690655,15.9176759 61.7690655,17.6073655" id="Fill-11" fill="#221E1F"></path>
                <path d="M63.9802069,17.3009414 L65.284,17.3009414 C65.968,17.3009414 66.2274483,17.033631 66.2274483,16.5625621 C66.2274483,16.0436655 65.9365517,15.8313897 65.1667241,15.8313897 L63.9802069,15.8313897 L63.9802069,17.3009414 Z M67.4218276,16.5468379 C67.4218276,17.2459069 67.123069,17.7648034 66.5884483,18.0478379 L67.4296897,20.4130103 L66.2510345,20.4130103 L65.4962759,18.298769 L63.9802069,18.298769 L63.9802069,20.4130103 L62.8094138,20.4130103 L62.8094138,14.8021138 L65.4491034,14.8021138 C66.6913103,14.8021138 67.4218276,15.4546655 67.4218276,16.5468379 L67.4218276,16.5468379 Z" id="Fill-13" fill="#221E1F"></path>
                <mask id="mask-2" fill="white">
                    <use xlink:href="#path-1"></use>
                </mask>
                <g id="Clip-16"></g>
                <polygon id="Fill-15" fill="#221E1F" mask="url(#mask-2)" points="68.5565862 20.4127483 69.7273793 20.4127483 69.7273793 14.8025069 68.5565862 14.8025069"></polygon>
                <polygon id="Fill-17" fill="#221E1F" mask="url(#mask-2)" points="70.5613483 14.8021138 71.7714517 14.8021138 73.0208655 19.2808724 73.3661414 19.2808724 74.6155552 14.8021138 75.8099345 14.8021138 74.1595552 20.4123552 72.2117276 20.4123552"></polygon>
                <polygon id="Fill-18" fill="#221E1F" mask="url(#mask-2)" points="76.6545172 20.4127483 77.8246552 20.4127483 77.8246552 14.8025069 76.6545172 14.8025069"></polygon>
                <polygon id="Fill-19" fill="#221E1F" mask="url(#mask-2)" points="84.0103345 14.8021138 84.0103345 20.4123552 82.5486448 20.4123552 80.3878862 16.5468379 80.2299897 16.5468379 80.2299897 20.4123552 79.1620586 20.4123552 79.1620586 14.8021138 80.6230931 14.8021138 82.7845069 18.6682862 82.9410931 18.6682862 82.9410931 14.8021138"></polygon>
                <path d="M90.2133759,17.2932759 L90.2133759,17.9530345 C90.2133759,19.2574828 89.5215138,20.5147586 87.7538586,20.5147586 C85.9940655,20.5147586 85.0427552,19.3046552 85.0427552,17.6071034 C85.0427552,15.918069 86.0091345,14.7001034 87.7617207,14.7001034 C89.0425828,14.7001034 89.8517207,15.3834483 90.0633414,16.4055172 L88.846031,16.4055172 C88.7202379,15.9888276 88.3585828,15.7451034 87.7538586,15.7451034 C86.748169,15.7451034 86.2449966,16.5391724 86.2449966,17.6071034 C86.2449966,18.6763448 86.748169,19.4776207 87.7617207,19.4776207 C88.6258931,19.4776207 89.0189966,18.9665862 89.0425828,18.2517931 L87.7145483,18.2517931 L87.7145483,17.2932759 L90.2133759,17.2932759 Z" id="Fill-20" fill="#221E1F" mask="url(#mask-2)"></path>
                <polygon id="Fill-21" fill="#221E1F" mask="url(#mask-2)" points="60.967331 28.7782517 60.967331 29.8468379 56.8266414 29.8468379 56.8266414 24.2365966 57.9974345 24.2365966 57.9974345 28.7782517"></polygon>
                <path d="M63.3429862,27.3089621 L64.8675724,27.3089621 L64.2785724,25.3604793 L63.9319862,25.3604793 L63.3429862,27.3089621 Z M65.1820552,28.3303759 L63.0442276,28.3303759 L62.5888828,29.8471 L61.4338138,29.8471 L63.2178483,24.2368586 L65.0326759,24.2368586 L66.8239172,29.8471 L65.6374,29.8471 L65.1820552,28.3303759 Z" id="Fill-22" fill="#221E1F" mask="url(#mask-2)"></path>
                <path d="M71.0546931,28.1576724 C71.0546931,27.6859483 70.7644517,27.4428793 70.1669345,27.4428793 L68.7917276,27.4428793 L68.7917276,28.8495345 L70.1512103,28.8495345 C70.7323483,28.8495345 71.0546931,28.6293966 71.0546931,28.1576724 M70.8974517,25.8318103 C70.8974517,25.4151207 70.6307966,25.2107069 70.1040379,25.2107069 L68.7917276,25.2107069 L68.7917276,26.4607759 L70.1119,26.4607759 C70.6380034,26.4607759 70.8974517,26.2563621 70.8974517,25.8318103 M72.2569345,28.220569 C72.2569345,29.1555 71.6515552,29.8473621 70.3241759,29.8473621 L67.6209345,29.8473621 L67.6209345,24.2364655 L70.2527621,24.2364655 C71.494969,24.2364655 72.0996931,24.9204655 72.0996931,25.7217414 C72.0996931,26.2327759 71.8716931,26.6723966 71.5100379,26.8532241 L71.5100379,27.0104655 C71.9116586,27.175569 72.2569345,27.6630172 72.2569345,28.220569" id="Fill-23" fill="#221E1F" mask="url(#mask-2)"></path>
                <path d="M76.3306,25.7769069 C76.2283931,25.328769 75.8903241,25.1400793 75.308531,25.1400793 C74.8138759,25.1400793 74.3893241,25.336631 74.3893241,25.7769069 C74.3893241,26.145769 74.7038069,26.2800793 75.0883931,26.3501828 L76.1340483,26.5388724 C77.0139448,26.6961138 77.6579793,27.1757 77.6579793,28.1813897 C77.6579793,29.1163207 76.9274621,29.9490448 75.4028759,29.9490448 C73.9890138,29.9490448 73.1169793,29.2421138 73.0069103,28.1342172 L74.2006345,28.1342172 C74.3028414,28.7546655 74.844669,28.9433552 75.4500483,28.9433552 C76.0632897,28.9433552 76.4799793,28.6839069 76.4799793,28.2364241 C76.4799793,27.7961483 76.1805655,27.6153207 75.7173586,27.5373552 L74.6487724,27.3480103 C73.7217034,27.1829069 73.210669,26.6568034 73.210669,25.8162172 C73.210669,24.8891483 73.9654276,24.1343897 75.3249103,24.1343897 C76.5422207,24.1343897 77.4070483,24.7633552 77.5243241,25.7769069 L76.3306,25.7769069 Z" id="Fill-24" fill="#221E1F" mask="url(#mask-2)"></path>
                <polygon id="Fill-25" fill="#F9EF76" mask="url(#mask-2)" points="30.5171448 37.7120517 16.6183172 27.9375345 2.18552414 24.7186724 -0.000131034483 12.5652241 14.0441448 -0.000327586207 40.0990414 5.81105172 43.7293517 25.9189483"></polygon>
                <path d="M30.5440069,28.7194172 C29.7053862,28.7194172 29.0259724,28.0393483 29.0259724,27.2013828 C29.0259724,26.3621069 29.7053862,25.6820379 30.5440069,25.6820379 C31.3826276,25.6820379 32.0626966,26.3621069 32.0626966,27.2013828 C32.0626966,28.0393483 31.3826276,28.7194172 30.5440069,28.7194172 M29.0259724,11.5584862 C29.0259724,10.7192103 29.7053862,10.0397966 30.5440069,10.0397966 C31.3826276,10.0397966 32.0626966,10.7192103 32.0626966,11.5584862 C32.0626966,12.3964517 31.3826276,13.0771759 30.5440069,13.0771759 C29.7053862,13.0771759 29.0259724,12.3964517 29.0259724,11.5584862 M23.5375931,19.3517621 C22.6989724,19.3517621 22.0189034,18.6723483 22.0189034,17.8330724 C22.0189034,16.9944517 22.6989724,16.3143828 23.5375931,16.3143828 C24.3755586,16.3143828 25.0562828,16.9944517 25.0562828,17.8330724 C25.0562828,18.6723483 24.3755586,19.3517621 23.5375931,19.3517621 M9.35114483,16.1722103 C8.51252414,16.1722103 7.83245517,15.4927966 7.83245517,14.6535207 C7.83245517,13.8149 8.51252414,13.134831 9.35114483,13.134831 C10.1897655,13.134831 10.8698345,13.8149 10.8698345,14.6535207 C10.8698345,15.4927966 10.1897655,16.1722103 9.35114483,16.1722103 M31.1244897,24.5885552 L31.1244897,14.1706586 C32.3234552,13.9046586 33.2243172,12.8360724 33.2243172,11.5584862 C33.2243172,10.0804172 32.0220759,8.87817586 30.5440069,8.87817586 C29.0665931,8.87817586 27.8643517,10.0804172 27.8643517,11.5584862 C27.8643517,12.0341414 27.9993172,12.4750724 28.2174897,12.8622793 L25.0936276,15.6598655 C24.6540069,15.3440724 24.118731,15.1534172 23.5375931,15.1534172 C22.4709724,15.1534172 21.5550414,15.7843483 21.1239379,16.6884862 L12.0308,14.6574517 L12.0308,14.6535207 C12.0308,13.1761069 10.8285586,11.9738655 9.35114483,11.9738655 C7.87307586,11.9738655 6.67083448,13.1761069 6.67083448,14.6535207 C6.67083448,16.1315897 7.87307586,17.333831 9.35114483,17.333831 C10.4216966,17.333831 11.3409034,16.6983138 11.7700414,15.7889345 L20.8592483,17.8186586 C20.8585931,17.8239 20.8572828,17.8284862 20.8572828,17.8330724 C20.8572828,19.3111414 22.0595241,20.5133828 23.5375931,20.5133828 C25.0150069,20.5133828 26.2172483,19.3111414 26.2172483,17.8330724 C26.2172483,17.3574172 26.0822828,16.9171414 25.8641103,16.5292793 L28.9879724,13.7316931 C29.2762483,13.9387276 29.6051448,14.0913828 29.9635241,14.1706586 L29.9635241,24.5885552 C28.7645586,24.8552103 27.8643517,25.9231414 27.8643517,27.2013828 C27.8643517,28.6787966 29.0665931,29.8810379 30.5440069,29.8810379 C32.0220759,29.8810379 33.2243172,28.6787966 33.2243172,27.2013828 C33.2243172,25.9231414 32.3234552,24.8552103 31.1244897,24.5885552" id="Fill-26" fill="#020303" mask="url(#mask-2)"></path>
            </g>
        </g>
    </g>
</svg>