<svg xmlns="http://www.w3.org/2000/svg" width="56" height="57" viewBox="0 0 56 57">
    <g fill="#000" fill-rule="evenodd">
        <path d="M27.217.418l-.391.013-.39.018-.395.01-.39.024-.396.017-.385.028-.393.034-.388.041-.383.034-.385.049-.379.054-.368.05-.381.062-.369.05-.361.076-.363.068-.362.073-.038.015-.042.005-.04.01h-.04l-.083-.01-.084-.005h-.042l-.036-.005-.04.005h-.026l-.04.005-.024.023-.027.021-.027.035-.377.073-.386.1-.378.088-.382.095-.379.088-.373.113-.384.1-.372.107-.377.108-.362.123-.374.119-.362.132-.366.126-.354.145-.352.14-.351.154-.125-.01-.102-.015h-.022l-.018.01-.022.004-.026.011-.01.013-.025.022-.02.019-.015.034-.29.11-.295.11-.293.12-.285.123-.294.137-.296.13-.288.138-.283.13-.125.076-.12.049-.124.057-.127.05-.128.076-.124.056-.063.048-.058.039-.058.046-.048.052-.081.015-.068.02-.066.033-.071.022-.135.062-.121.075-.125.065-.13.061-.065.027-.071.03-.076.02-.067.014-.036.058-.048.041-.042.042-.052.035-.104.076-.113.077-.107.065-.1.073-.048.04-.046.041-.042.048-.042.045-.112.038-.103.054-.107.046-.118.062-.106.057-.108.069-.11.062-.11.075-.043.043-.04.042-.043.047-.058.043-.102.079-.111.072-.127.073-.124.098-.054.044-.057.052-.06.062-.057.062-.047.027-.06.02-.05.031-.05.038-.089.08-.107.088-.046.034-.054.042-.054.041-.058.035-.06.027-.066.035-.059.03-.071.02-.226.21-.227.204-.219.205-.21.21-.21.208-.216.215-.206.213-.2.217-.202.22-.187.214-.186.221-.192.223-.18.225-.177.217-.17.228-.162.228-.165.227-.169.23-.153.236-.155.228-.143.232-.143.241-.137.235-.135.227-.122.241-.13.248-.105.232-.128.247-.106.24-.097.244-.102.25-.098.247-.125.356-.108.361-.097.367-.096.38-.083.37-.071.382-.062.375-.052.386-.04.381-.031.389-.02.379-.016.399v.388l.004.39.02.388.027.381.036.383.05.39.049.384.071.386.071.365.082.395.103.36.098.376.119.36.13.36.121.362.143.345.148.343.156.337.173.339.17.33.101.085.02.088.03.072.033.082.043.059.074.121.083.113.04.055.035.051.034.06.036.058.03.053.015.065.01.061v.07l.061.011.04.027.028.024.038.034.018.024.021.026.016.04.015.027.024.07.037.067.01.03.025.026.031.02.036.024.07.103.07.1.071.103.066.098.066.1.047.102.053.107.043.111.083.044.071.06.065.05.064.057.054.055.049.058.047.066.036.055.076.113.097.122.046.056.052.055.068.059.066.045.036.076.051.054.05.064.051.052.12.103.114.1.116.088.107.097.042.039.037.054.029.044.026.054.2.186.207.193.197.188.21.183.207.187.215.173.2.185.221.165.207.177.213.171.224.162.217.167.215.155.224.157.223.16.219.154.22.15.234.157.22.145.23.143.457.283.458.294.472.265.462.272.47.251.473.26.108.025.107.024.102.033.108.034.1.046.092.04.101.052.092.046.197.104.178.115.185.107.19.101.082.006.093.013.082.01.089.024.084.02.076.019.076.035.08.034.159.073.143.075.15.08.142.073.555.178.549.176.554.167.552.159.56.144.565.147.558.134.564.136.578.114.571.116.589.093.584.093.577.104.592.086.593.073.6.076.374.034.377.022.38.023.388.024.372.017.389.009.373.018.381.007h1.154l.38-.013.38-.012.388-.016.38-.02.376-.014.377-.029.388-.022.373-.034.374-.035.384-.046.368-.042.374-.042.368-.05.369-.055.368-.063.364-.045.354-.064.36-.06.35-.075.357-.069.345-.073.076-.048.071-.044.096-.029.083-.03.09-.026.082-.025.092-.016.086-.016.1-.014.085-.018.09-.016.091-.028.081-.034.083-.035.084-.034.075-.05H37.38l.058-.015.052-.01.108-.023.107-.046.12-.048.107-.041.108-.04.113-.047.143-.029.147-.04.14-.04.144-.045.15-.04.144-.055.148-.049.147-.072.32-.086.325-.082.314-.106.315-.111.313-.108.317-.113.301-.115.303-.127.306-.119.308-.124.302-.138.303-.128.306-.142.307-.13.309-.138.302-.136.2-.177.07-.017.072-.03.064-.034.072-.038.123-.075.13-.081.133-.087.124-.072.07-.035.067-.034.07-.018.068-.029.093-.077.098-.076.094-.062.094-.068.197-.11.21-.102.193-.103.206-.115.093-.064.094-.067.1-.075.087-.074.056-.005.05-.008.035-.024.04-.03.045-.031.04-.018.029-.037.038-.035.062-.065.055-.053.036-.025.034-.025.032-.004h.035l.053-.068.06-.059.061-.051.056-.042.122-.077.12-.08.057-.023.058-.039.055-.035.052-.04.055-.043.04-.06.052-.058.035-.055.088-.035.089-.04.075-.051.072-.041.075-.05.074-.058.065-.057.067-.064.057-.056.068-.07.057-.055.061-.069.111-.132.096-.131h.108l.22-.188.208-.2.207-.191.204-.193.209-.192.187-.195.204-.205.182-.2.188-.213.178-.206.172-.2.172-.211.167-.214.154-.216.161-.215.153-.213.15-.227.143-.216.142-.232.13-.22.134-.228.127-.222.114-.242.119-.228.106-.235.107-.234.098-.24.098-.236.09-.238.09-.249.076-.244.076-.248.122-.384.111-.388.102-.395.088-.38.07-.413.074-.394.053-.408.037-.404.035-.403.022-.407.014-.408v-.41l-.005-.4-.02-.412-.029-.394-.042-.405-.047-.4-.066-.408-.072-.394-.08-.39-.099-.387-.086-.397-.114-.374-.124-.379-.127-.366-.142-.379-.147-.354-.163-.36-.166-.348-.173-.343-.194-.33-.192-.332-.194-.176-.076-.144-.088-.164-.038-.069-.052-.076-.036-.03-.032-.02-.031-.03-.04-.017-.036-.095-.048-.103-.058-.103-.05-.094-.06-.09-.046-.083-.047-.083-.048-.073-.06-.046-.064-.051-.054-.059-.047-.049-.08-.103-.078-.098-.082-.103-.076-.1-.048-.061-.06-.045-.053-.046-.071-.065v-.015l-.005-.023-.006-.03-.012-.02-.017-.046-.036-.035-.078-.073-.085-.078-.047-.038-.047-.048-.04-.038-.03-.045-.036-.052-.022-.054-.014-.025-.006-.034v-.03l-.012-.034-2.128-1.903-.154-.114-.168-.112-.154-.116-.161-.113-.153-.116-.163-.108-.16-.114-.154-.117-.077-.068-.07-.06-.072-.063-.072-.051-.152-.104-.141-.101-.146-.092-.143-.083-.15-.09-.141-.103-.09-.036-.092-.042-.086-.051-.072-.052-.147-.1-.152-.118-.071-.057-.076-.053-.078-.042-.071-.047-.076-.048-.085-.034-.082-.022-.09-.023-.267-.159-.268-.143-.275-.149-.26-.137-.272-.141-.275-.137-.28-.14-.268-.128-.28-.122-.284-.126-.274-.126-.284-.119-.286-.117-.28-.119-.292-.106-.283-.113-.283-.11-.29-.098-.29-.106-.29-.106-.584-.194-.596-.183-.586-.171-.596-.176-.6-.162-.6-.153h-.113l-.113-.004-.133-.007-.123-.013-.066-.01-.066-.02-.06-.014-.072-.01-.053-.018-.058-.03-.06-.03-.047-.027-.26-.035-.238-.026-.244-.035-.232-.034-.241-.034-.24-.037-.247-.033-.248-.035-.363-.046-.37-.051-.384-.041-.368-.04-.381-.028-.386-.031-.382-.03-.386-.018-.39-.01-.389-.025-.399-.011-.386-.006h-1.19zM7.199 29.01l-.036-.011-.03-.023-.024-.034-.016-.041-.046-.077-.06-.082-.025-.047-.036-.028-.016-.02-.027-.014-.023-.01-.02-.009-.045-.089-.054-.091-.053-.092-.046-.093-.062-.08-.053-.085-.04-.097-.05-.096-.039-.034-.047-.04-.036-.042-.025-.044-.046-.097-.043-.094-.017-.05-.018-.034-.025-.054-.023-.031-.03-.035-.036-.03-.04-.027-.056-.024-.052-.149-.066-.147-.076-.143-.067-.145-.157-.265-.158-.268-.071-.131-.076-.132-.066-.134-.072-.128-.064-.134-.057-.132-.051-.13-.035-.142-.071-.168-.072-.175-.064-.18-.068-.18-.057-.189-.061-.182-.057-.201-.057-.176-.113-.388-.094-.389-.085-.384-.076-.376-.05-.24-.034-.236-.027-.244-.025-.24-.029-.236-.01-.238-.017-.24-.005-.247-.004-.233.004-.246.005-.236.016-.25.011-.228.022-.246.018-.229.031-.235.026-.238.033-.23.035-.237.04-.235.036-.23.042-.229.05-.234.058-.22.096-.456.117-.443.115-.433.131-.436.026-.05.036-.055.027-.048.023-.068.049-.116.044-.118.02-.057.022-.059.03-.057.031-.056.04-.062.044-.054.04-.054.047-.048.088-.205.076-.196.086-.199.096-.194.1-.189.097-.175.113-.195.103-.184.222-.366.233-.366.226-.364.223-.367.06-.033.062-.035.04-.043.049-.044.036-.037.03-.041.028-.041.032-.044.022-.041.03-.044.032-.04.035-.043.04-.045.048-.034.06-.035.071-.033.005-.05.014-.047.017-.046.023-.04.024-.028.042-.048.035-.029.032-.035.036-.033.035-.04.037-.038.026-.03.024-.045.026-.035.005-.037.01-.059.138-.103.13-.111.133-.118.118-.118.233-.242.217-.238.113-.12.106-.111.116-.114.118-.103.056-.043.056-.047.067-.048.064-.042.068-.047.068-.038.068-.041.071-.034.082-.104.072-.092.076-.078.078-.083.085-.073.082-.067.09-.07.08-.057.174-.132.187-.132.087-.069.092-.068.087-.08.092-.077.108-.069.107-.064.108-.074.113-.063.107-.077.115-.069.11-.06.104-.077.042-.043.04-.041.035-.043.05-.035.04-.024.04-.02.049-.031.05-.02.086-.042.087-.035.044-.024.043-.026.04-.033.04-.025.067-.07.078-.05.072-.057.071-.046.15-.08.142-.062.254-.163.258-.135.253-.142.257-.144.257-.144.26-.132.264-.123.254-.127.257-.112.267-.133.26-.11.263-.108.264-.115.271-.106.272-.103.277-.106.241-.067.25-.073.238-.062.23-.076.245-.062.237-.075.245-.058.253-.073.086-.026.093-.033.096-.025.09-.025.182-.035.186-.038.173-.03.186-.038.091-.025.091-.027.09-.035.096-.029.272-.058.278-.055.277-.048.277-.05.279-.051.285-.042.28-.033.285-.04.286-.029.294-.034.283-.028.286-.03.296-.019.3-.026.282-.017.29-.017.299-.008.297-.01.292-.01.297-.01H27.861l.606.01.594.02.606.019.6.034.459.03.45.052.459.057.452.062.452.06.452.085.452.078.448.096.446.097.445.103.438.11.433.111.437.112.43.133.422.13.42.137.236.084.238.092.239.086.243.085.23.104.24.102.237.09.237.116.241.11.23.109.245.113.232.12.243.126.23.124.238.128.233.137.22.1.218.107.209.118.22.131.205.124.212.131.201.132.214.143.203.14.2.147.207.141.2.155.194.147.206.15.201.159.203.15h.093l.16.141.174.137.19.156.179.173.093.077.087.08.08.087.083.08.062.089.058.084.054.08.049.09H42.13l-.587 1.107-.573 1.108-.588 1.116-.59 1.117-.578 1.109-.59 1.103-.574 1.115-.588 1.119-.577 1.114-.595 1.104-.584 1.106-.582 1.12-.576 1.116-.581 1.105-.586 1.109-.584 1.12.096.086h8.65l.075-.098.076-.088.067-.1.06-.09.07-.093.049-.103.028-.062.024-.057.018-.057.023-.069.07-.103.072-.115.071-.117.068-.134.067-.126.054-.136.043-.137.045-.132-7.493-.089.013-.036.01-.028.012-.03.023-.027.014-.024.017-.017.022-.021.018-.018.06-.036.056-.015.065-.024.054-.023.13-.028.138-.028.057-.019.073-.026.057-.02.056-.029.129-.069.127-.068.129-.056.123-.056.263-.116.25-.098.257-.103.255-.1.132-.065.126-.051.129-.068.124-.062.003-.03.017-.013.022-.025.01-.019.033-.025.032-.02.045-.016.042-.014.045-.015.036-.004.053-.016.042-.008.048-.01.036-.016.035-.028.035-.027.013-.017.016-.018.017-.023.003-.022.088-.024.087-.027.08-.037.078-.039.078-.04.078-.049.066-.047.077-.058.07-.051.076-.044.072-.051.076-.042.085-.048.071-.034.087-.023.091-.02.115-.075.105-.074.111-.084.107-.07.117-.072.106-.069.057-.04.05-.02.06-.027.052-.018.165-.141.166-.14.158-.147.167-.146.325-.3.327-.306.334-.298.325-.31.168-.149.167-.137.154-.146.165-.146.006-.043.02-.052.01-.042.03-.05.023-.038.044-.04.04-.048.036-.045.082-.086.086-.073.036-.054.023-.05.03-.039.022-.058.056-.039.047-.03.035-.038.04-.04.06-.089.052-.086.054-.083.066-.083.036-.039.04-.035.047-.034.052-.038.076-.103.06-.086.047-.09.06-.088.054-.079.057-.097.067-.086.065-.098.202-.37.2-.359.198-.379.193-.367.21-.37.203-.373.198-.37.201-.358.201-.378.198-.358.201-.373.204-.364.201-.379.195-.372.209-.365.198-.372h.026l.03-.008.027-.018.009-.009.02-.021.016-.013.031-.008.034-.008.068.069.065.063.046.069.05.072.086.134.076.136.176.304.19.296.18.293.17.282.173.3.16.292.086.141.077.148.076.15.071.152.186.43.164.434.15.446.135.447.126.455.103.452.093.461.071.468.067.47.036.468.024.468.022.482v.469l-.022.474-.024.473-.051.464-.056.472-.08.47-.09.454-.098.474-.12.448-.125.45-.143.445-.168.44-.172.436-.184.422-.196.424-.22.403-.22.414-.244.39-.252.38-.269.366-.045.056-.05.053-.047.056-.045.059-.08.119-.084.112-.051.06-.035.064-.045.052-.042.06-.06.058-.059.057-.067.05-.064.053.013.039V29.158l-.02.023-.022.034-.024.034-.025.023-.037.029-.057.043-.064.05-.027.027-.01.035-.02.034-.006.028-.147.191-.141.18-.17.18-.15.169-.17.172-.165.172-.166.163-.173.155-.178.159-.173.167-.173.16-.184.162-.364.302-.37.308-.051.016-.042.03-.047.027-.04.035-.076.075-.083.086-.069.087-.075.072-.05.036-.04.034-.049.028-.054.01-.053.052-.06.045-.052.034-.052.03-.108.073-.096.06-.054.025-.049.033-.042.034-.051.045-.041.038-.042.046-.035.062-.042.058-.113.038-.103.051-.106.052-.115.064-.11.05-.107.074-.108.058-.113.075-.154.103-.15.103-.16.09-.167.116-.164.1-.162.104-.152.098-.16.103-.103.04-.108.029-.105.04-.104.036-.094.042-.096.053-.046.024-.036.039-.043.03-.034.033-.291.107-.295.108-.289.12-.283.128-.282.123-.275.137-.267.138-.255.14-.05-.012-.051-.009h-.037l-.036.013-.035.008-.022.022-.03.012-.024.014-.036.047-.046.047-.031.016-.027.004-.027.015-.036.003H37.455l-.053.01-.048.005-.09.016-.087.03-.096.039-.091.049-.105.058-.101.062-.148.04-.135.028-.15.03-.149.034-.144.04-.147.038-.152.024-.142.04-.546.143-.552.14-.558.122-.572.118-.577.1-.583.099-.586.072-.594.074-.603.069-.61.04-.608.028-.605.026-.609.015h-.613l-.615-.012-.614-.019-.615-.018-.609-.041-.604-.059-.612-.068-.6-.072-.605-.086-.59-.099-.58-.113-.583-.127-.571-.118-.57-.15-.554-.147-.553-.172-.536-.184-.528-.18-.518-.199-.143-.067-.156-.067-.151-.057-.163-.061-.321-.117-.326-.115-.166-.068-.158-.07-.17-.072-.16-.086-.163-.091-.154-.095-.076-.06-.07-.04-.08-.061-.07-.054-.09-.027-.088-.019-.09-.035-.08-.02-.085-.055-.082-.038-.088-.038-.08-.053-.16-.093-.175-.103-.077-.038-.085-.039-.093-.046-.088-.034-.06-.064-.053-.054-.059-.044-.06-.04-.065-.03-.066-.024-.056-.031-.068-.03-.062-.022-.071-.02-.054-.035-.062-.04-.068-.043-.053-.04-.058-.054-.06-.059-.036-.005-.028-.011-.038-.018-.03-.016-.053-.048-.052-.045-.062-.051-.06-.039-.026-.02-.03-.015-.031-.014h-.036l-.06-.058-.052-.054-.062-.05-.057-.043-.126-.085-.12-.068-.051-.035-.06-.034-.06-.038-.054-.044-.045-.043-.049-.043-.04-.066-.036-.06-.071-.036-.072-.04-.066-.046-.067-.045-.064-.046-.062-.052-.058-.058-.053-.05-.107-.12-.093-.116-.092-.102-.076-.105v-.089l8.947-.091.045-.041.051-.034.037-.045.02-.03.025-.044.026-.042.01-.044.012-.04.028-.087.037-.088.017-.037.018-.039.028-.034.035-.034.11-.265.126-.27.123-.253.126-.262.132-.27.116-.275.063-.145.065-.142.051-.152.055-.145-11.084-.084.02-.034.03-.028.018-.03.017-.03.054-.044.064-.033.06-.035.06-.028.072-.023.072-.018.147-.022.153-.035.082-.018.08-.026.071-.025.078-.03.34-.121.338-.128.337-.133.339-.138.327-.149.329-.139.32-.157.326-.147.328-.154.328-.16.315-.16.325-.153.323-.15.322-.167.326-.153.319-.155.155-.136.162-.13.165-.132.17-.127.086-.051.089-.061.092-.054.083-.048.094-.049.088-.04.093-.04.09-.038.038-.06.042-.06.048-.042.044-.053.052-.038.055-.035.063-.035.052-.033.101-.05.108-.068.054-.035.04-.04.041-.04.046-.046.043-.017.054-.03.05-.028.053-.034.087-.075.087-.075.076-.077.082-.06.03-.022.042-.017.04-.017h.03l2.528-2.36.02-.034.003-.034.013-.035.017-.027.041-.052.042-.051.047-.053.054-.043.05-.042.05-.034.061-.042.05-.05.057-.045.047-.051.036-.048.048-.056.012-.03.011-.025.013-.043.004-.026.183-.189.182-.194.159-.201.179-.21.167-.211.154-.214.156-.221.152-.218.15-.21.142-.224.143-.234.14-.231.133-.214.13-.23.14-.227.135-.218.19-.09.143-.292.14-.296.138-.287.15-.298.142-.298.144-.289.136-.303.149-.304.143-.29.147-.297.161-.303.153-.291.163-.297.172-.296.167-.287.186-.29.111-.235.107-.234.121-.24.116-.236.114-.232.119-.225.125-.232.126-.23.116-.236.12-.228.13-.232.127-.224.13-.234.124-.24.125-.228.125-.234.1-.09-.1-.096H18.211l-.671 1.29-.677 1.286-.673 1.281-.678 1.292-.671 1.295-.678 1.288-.679 1.287-.671 1.289-.68 1.287-.671 1.28-.673 1.29-.674 1.297-.675 1.285-.672 1.286-.675 1.297-.68 1.283-.036.013-.03.005-.028.01-.023.004H7.225l-.026-.008z"/>
        <path d="M27.137 14.718l-.658 1.25-.648 1.245-.647 1.25-.652 1.24-.646 1.25-.657 1.253-.651 1.246-.647 1.25-.654 1.245-.644 1.245-.655 1.258v.182h10.991l.052-.137.066-.144.068-.129.075-.132.143-.257.157-.252.066-.132.072-.124.063-.133.06-.118.04-.14.055-.13.017-.065.013-.068.017-.066.014-.068h-9.246l-.19-.183.362-.128.361-.134.364-.126.359-.133.175-.075.18-.075.164-.062.18-.083.172-.082.165-.085.17-.093.172-.107.143-.054.134-.05.146-.053.132-.068.277-.11.267-.124.262-.132.261-.128.256-.139.248-.132.042-.041.036-.021.043-.022.047-.03.084-.035.083-.029.082-.038.065-.04.035-.034.027-.013.023-.028.022-.034.107-.075.116-.056.107-.077.107-.053.111-.06.106-.052.106-.055.108-.03.046-.06.045-.052.042-.051.051-.048.047-.034.054-.041.056-.034.06-.034.1-.056.106-.062.055-.03.04-.045.04-.04.045-.046.036-.006.035-.01.027-.018.032-.024.06-.064.064-.06.031-.028.04-.034.032-.03.04-.03.043-.027.044-.025.045-.003.046-.005.357-.32.324-.299.294-.288.286-.272.279-.274.285-.278.297-.31.316-.318.025-.03.011-.035.03-.03.022-.026.054-.051.066-.052.131-.109.15-.113.005-.054.004-.05.01-.036.02-.045.023-.04.03-.035.026-.02.03-.031.046-.07.042-.048.025-.028.012-.03.005-.03.005-.039.112-.103.102-.108.096-.108.083-.116.089-.118.083-.116.087-.126.071-.117.147-.246.158-.248.079-.137.083-.118.09-.123.087-.119.072-.133.078-.135.072-.141.078-.134.086-.132.096-.141.087-.136.112-.143.23-.46.232-.47.232-.475.231-.47.229-.475.234-.466.228-.474.231-.47.232-.467.233-.48.229-.463.228-.467.239-.473.231-.47.227-.477.23-.462h-8.853l-.654 1.241-.65 1.25-.641 1.244-.652 1.246zM16.462 46.79l-.263.592-.255.571-.266.583-.262.572-.264.587-.26.573-.261.584-.258.575-.266.576-.254.581-.27.572-.26.581-.255.572-.264.583-.259.584-.263.576.203.018.207.006.21.018.212.009.215.01h.217l.224.008h.434l.217-.008h.216l.215-.01.211-.009.21-.018.21-.006.198-.018.268-.576.27-.584.27-.583.27-.572.264-.581.265-.572.267-.581.268-.576.267-.575.266-.584.272-.573.265-.587.273-.572.263-.583.265-.57.278-.593zM6.266 46.77l-.25.575-.24.573-.253.577-.25.567-.25.579-.253.57-.247.57-.247.569-.25.583-.243.563-.255.578-.253.564-.25.586-.249.57-.249.572-.245.572.072.078.084.085.021.012.028.014.028.008.029.007h.059l.035-.007.032-.017h7.58l.494-.18.083-.068.084-.07.076-.067.065-.082.068-.075.051-.074.057-.086.051-.08.042-.086.035-.079.036-.08.03-.084.03-.081.022-.088.025-.086.015-.085-5.248-.09.19-.388.18-.401.18-.393.183-.402.181-.395.185-.395.172-.402.187-.4.19-.405.179-.395.186-.4.175-.406.18-.39.189-.4.182-.386.183-.391.036-.087.044-.088.044-.079.047-.085.094-.178.096-.184.048-.078.035-.088.036-.103.035-.089.03-.098.02-.098.015-.104v-.1zM24.195 46.84l-.176.03-.17.021-.082.024-.076.015-.071.026-.079.02-.071.023-.071.034-.067.04-.063.05-.06.054-.062.057-.063.075-.06.069-.252.549-.253.538-.256.535-.25.538-.261.536-.252.538-.26.547-.251.538-.25.53-.258.543-.26.543-.246.531-.263.542-.253.542-.26.539-.26.536.208.017.21.006.21.02.215.008.21.011h.214l.225.006h.442l.208-.006h.218l.221-.011.214-.008.201-.02.21-.006.214-.017.112-.233.118-.248.122-.238.123-.235.125-.234.116-.24.13-.24.115-.233.118-.243.128-.244.118-.233.125-.236.125-.238.12-.23.115-.246.122-.234h5.162l.035-.018.036-.017.04-.003.047-.015.083-.016.096-.003.05-.02.039-.01.04-.009.049-.02.042-.03.043-.039.04-.04.035-.035.047-.02.06-.031.047-.027.05-.042.046-.033.042-.043.054-.05.041-.055.095-.103.095-.107.096-.11.105-.11v-.026l.008-.036.006-.03.017-.027.03-.046.024-.061.019-.024.013-.023.004-.034.005-.022v-.03l-.005-.03-.004-.026-.021-.043h-5.928l-.101-.088.042-.15.05-.141.044-.151.054-.143.067-.142.06-.126.071-.136.059-.128.143-.26.142-.269.058-.126.067-.131.062-.132.055-.138h5.359l.112-.015.048-.01.054-.017.048-.018.06-.013.046-.004.045-.03.05-.022.041-.026.047-.033.042-.022.036-.023.035-.043.079-.046.06-.022.055-.046.059-.043.044-.046.05-.064.042-.051.046-.055.076-.111.08-.112.046-.06.046-.05.052-.062.051-.051.012-.133.023-.133.005-.073v-.062l-.005-.038-.011-.035-.012-.035-.012-.03z"/>
        <path d="M36.507 46.964l-.128.01-.116.018-.121.015-.128.03-.125.038-.118.041-.128.042-.104.05-.121.05-.72.553-.724.558-.726.55-.718.559-.723.56-.723.552-.724.556-.725.559-.714.547-.732.571-.72.549-.726.55-.725.559-.718.559-.734.555-.711.554.277.016.265.006.272.007.274.003.275.01h.278l.273-.01.268-.003.274-.007h.552l.27-.006.272-.008h.271l.277-.008h.278l.415-.285.418-.304.42-.297.423-.313.421-.308.417-.316.429-.321.416-.32.428-.313.43-.325.426-.313.423-.321.433-.317.44-.317.43-.314.433-.303.102.084v3.544l-.102.092h-4.76l-.02.085-.012.087-.02.089v.086l-.005.094v.084l.005.091.016.083.012.083.023.092.025.069.046.075.041.069.046.072.032.03.029.022.042.035.027.02h6.612l.387-.18.101.364h3.308l.159-.304.164-.306.164-.307.171-.293.154-.302.163-.298.158-.299.157-.301.148-.299.153-.29.15-.303.141-.296.144-.301.143-.303.132-.307.128-.3.03-.047.035-.039.031-.057.025-.046.04-.121.048-.11.023-.057.016-.05.036-.038.031-.036.013-.016.022-.01.014-.016.022-.004h.078l.016.004 2.44 4.535.066.118.066.096.058.103.076.093.037.049.036.04.052.035.042.044.06.048.053.034.061.039.071.035.268.008.272.014h.547l.143-.01.13-.017.065-.013.068-.022.057-.016.068-.018.056-.023.055-.024.063-.035.052-.044.054-.028.051-.041.048-.04.042-.05.25-.555.243-.548.238-.549.244-.547.245-.56.241-.55.239-.55.248-.551.246-.543.236-.552.245-.552.247-.552.242-.543.243-.55.238-.558.248-.544H49.527l-.156.336-.141.34-.156.34-.153.321-.15.343-.158.325-.161.322-.153.324-.164.315-.16.333-.158.305-.168.32-.163.322-.164.308-.166.307-.16.301h-.02l-.005-.003-.01-.007-.008-.008-.004-.03v-.069l-.006-.02-.008-.02-.01-.008-.014-.003-.011-.005-.114-.27-.118-.268-.13-.263-.12-.278-.136-.265-.132-.26-.136-.273-.138-.258-.137-.26-.128-.267-.143-.266-.132-.257-.12-.265-.127-.27-.122-.273-.11-.27-.107-.102-.11-.094-.111-.072-.108-.073-.114-.064-.106-.054-.108-.05-.113-.034-.165-.025-.17-.008-.163-.013-.17-.014-.165-.003-.164.003-.082.007-.085.007-.083.013-.078.004-.076.018-.078.017-.078.018-.078.021-.079.036-.076.023-.071.034-.064.038-.065.045-.071.048-.068.051-.064.041-.058.062-.067.061-.054.078-.06.073-.243.492-.25.512-.25.505-.25.504-.25.505-.242.51-.255.502-.252.509-.249.5-.257.505-.241.507-.257.505-.243.5-.251.51-.25.507-.22.442v.006l-.005.02-.01.02-.014.009.03-.055v-.014l-.012-.03-.018-.026-.012-.042-.01-.039v-.01l.005-.018.005-.018.012-.016v-7.988l-.29-.45-.045-.032-.052-.03-.048-.03-.044-.025-.055-.019-.054-.016-.06-.013-.053-.01-.061-.007-.052-.011-.055-.006-.064-.005z"/>
    </g>
</svg>
