<svg width="90" height="26" id="Слой_1" data-name="Слой 1" xmlns="http://www.w3.org/2000/svg" xmlns:xlink="http://www.w3.org/1999/xlink" viewBox="0 0 90 25.61">
  <defs>
    <mask id="mask" x="0" y="0" width="90" height="25.61" maskUnits="userSpaceOnUse">
      <g transform="translate(0 -0.7)">
        <g id="b">
          <path id="a" d="M0,0.7H90V26.31H0V0.7Z" fill="#fff"/>
        </g>
      </g>
    </mask>
  </defs>
  <title>part-2</title>
  <g mask="url(#mask)">
    <path d="M32.65,9.8V3.91h1.77c2.23,0,3.23,1.28,3.23,2.85a3,3,0,0,1-3.23,3H32.65ZM8.45,7.65l0,0,0,0,0,0.06,0,0,0,0,0,0L8.2,8V8l0,0h0l-0.06.08h0l0,0h0L8,8.32h0l-0.09.14h0l0,0h0l-0.06.1h0l0,0h0l-0.09.15h0l-0.12.21h0l-0.08.16h0l0,0.06h4.84V12H3.15A10.28,10.28,0,0,0,5,16.22l0,0.06,0,0,0,0v0l0,0.06h0l0,0,0,0,0,0.06h0l0,0h0l0,0h0l0,0.05,0,0,0,0h0L5.6,16.86h0l0,0v0l0,0,0,0L5.8,17.06l0,0,0,0,0.05,0,0,0,0,0,0,0,0,0,0,0,0,0,0,0,0,0,0,0,0,0,0,0,0,0,0,0,0,0,0,0,0,0,0,0,0,0,0.06,0,0,0,0,0,0,0,0.12,0.09h0l0,0h0l0.08,0.06h0l0,0h0l0.14,0.09h0l0.14,0.09h0l0,0h0L7.4,18.29h0l0,0h0L7.6,18.41h0l0.21,0.12h0L8,18.62H8l0.05,0V13.83h2.73v9.06A10.28,10.28,0,0,0,15,21l0.06,0h0l0,0h0l0.06,0h0l0,0,0,0,0.06,0h0l0,0,0,0,0,0h0l0.05,0,0,0,0,0,0,0,0.05,0,0,0,0,0,0,0,0,0,0,0,0,0,0,0,0,0,0,0,0,0,0,0,0,0,0,0,0,0,0,0,0,0,0,0,0,0,0,0,0,0,0,0,0,0,0,0,0,0,0-.06,0,0,0,0,0,0,0.05-.07v0l0,0h0l0.09-.13v0l0,0h0l0.06-.08h0l0,0h0L16.85,19h0L17,18.81h0l0,0h0l0.09-.15h0l0.09-.16h0c0.08-.15.16-0.29,0.24-0.44H12.67V15.25h9a10.28,10.28,0,0,0-1.9-4.19,8.93,8.93,0,0,0-3-2.43v4.95H14V4.39A10.26,10.26,0,0,0,9.82,6.28h0l-0.06,0h0l0,0h0l-0.06,0h0l0,0h0l-0.06,0h0l-0.05,0h0l0,0h0l-0.05,0,0,0,0,0h0l-0.05.05h0l0,0h0l0,0L9,7,9,7,9,7l0,0,0,0,0,0,0,0,0,0,0,0,0,0,0,0,0,0,0,0,0,0,0,0,0,0,0,0,0,0,0,0,0,0M7.16,5l0,0,0,0,0,0,0,0,0,0,0,0,0.06-.06,0,0,0,0,0.08-.07,0,0,0,0,0,0,0,0,0,0,0,0,0,0,0,0,0,0L8,4.22l0,0,0.08-.06a13.82,13.82,0,0,1,7.09-2.72l1.53-.18v4.4a12,12,0,0,1,5.16,3.73,13.83,13.83,0,0,1,2.72,7.09L24.81,18h-4.4a13.93,13.93,0,0,1-.84,1.77h0l0,0.08h0l0,0.08h0l0,0.08h0l-0.31.5v0l0,0.07v0l0,0.07v0l0,0.06v0l0,0.07h0l-0.22.3h0l0,0.06,0,0,0,0,0,0,0,0,0,0,0,0,0,0,0,0,0,0,0,0,0,0,0,0,0,0-0.1.11h0l0,0,0,0,0,0,0,0,0,0,0,0-0.07.08,0,0,0,0,0,0,0,0,0,0,0,0,0,0-0.06,0,0,0-0.07.07,0,0,0,0,0,0,0,0,0,0,0,0,0,0,0,0L17,22.92l0,0,0,0,0,0,0,0,0,0-0.08.06a13.84,13.84,0,0,1-7.09,2.72L8.06,26v-4.4a14.26,14.26,0,0,1-1.78-.84h0l-0.08,0h0l-0.08,0h0L6,20.64H6l-0.49-.31h0l-0.07,0h0l-0.07,0h0l-0.06,0h0l-0.06,0h0L5.1,20h0l-0.22-.17h0l-0.06,0h0l-0.06,0,0,0-0.05,0,0,0,0,0,0,0,0,0,0,0-0.05,0,0,0-0.05,0,0,0-0.18-.16,0,0,0,0,0,0,0,0,0,0,0,0,0,0,0,0,0,0,0,0,0,0,0,0,0,0-0.08-.08,0,0-0.07-.08,0,0,0,0,0,0,0,0,0,0,0,0,0,0,0,0,0,0,0,0,0,0,0,0,0,0L3,18l0,0L2.9,17.91A13.8,13.8,0,0,1,.18,10.82L0,9.29H4.4A13.5,13.5,0,0,1,5.3,7.43h0l0-.08h0L5.4,7.25l0.32-.5h0l0.05-.07h0l0-.07v0l0-.06v0L6,6.4l0.22-.3h0L6.24,6h0L6.3,6l0,0,0-.05,0,0,0-.05,0,0,0.07-.08,0-.05,0,0,0-.05,0,0L6.8,5.36l0,0,0,0,0,0,0,0,0,0,0,0,0,0,0,0m47.5-4.15V4.29H47.09V8.58h6.82V11.7H47.09v4.86h7.49v3.36H43.24v-19H54.58ZM70.49,19.33a15.51,15.51,0,0,1-4.92.81c-4.72,0-9.88-2.69-9.88-9.61C55.7,4,60.31.7,66.28,0.7a13.12,13.12,0,0,1,4.21.65L70.33,4.61a10.1,10.1,0,0,0-3.77-.71c-4.26,0-6.79,2.69-6.79,6.57,0,4.59,3.1,6.46,6.51,6.46a9.46,9.46,0,0,0,4-.84ZM80.69,3.42c1.44,0,5.24.57,5.24,7s-3.8,7-5.24,7-5.24-.57-5.24-7S79.25,3.42,80.69,3.42ZM31,22.7v0.64H29.49v3H28.76V22.7H31Zm6.24,2.21,0.5-1.48h0l0.53,1.48h-1Zm8.34-.52V23.27h0.33a0.53,0.53,0,0,1,.61.54,0.56,0.56,0,0,1-.61.58H45.54Zm8.11,0.52,0.5-1.48h0l0.53,1.48h-1ZM62,22.7v1.45h1.46V22.7h0.73v3.61H63.45V24.75H62v1.56H61.26V22.7H62Zm10.22,0v0.64h-1v3H70.45v-3h-1V22.7h2.81Zm6,0v1.86l0,0.88h0l0.26-.53,1.26-2.21h0.87v3.61H79.83V23.58h0l-0.25.55-1.27,2.19H77.44V22.7h0.73Zm9.73,1.7H87.49a0.6,0.6,0,0,1-.68-0.57,0.56,0.56,0,0,1,.67-0.57H87.9V24.4Zm0.73-1.7H87.47A1.21,1.21,0,0,0,86,23.81a1,1,0,0,0,.71,1l-0.86,1.49h0.87L87.47,25H87.9v1.34h0.73V22.7Zm-34.86,0-1.43,3.61h0.78l0.3-.81h1.48l0.3,0.81H56L54.6,22.7H53.77Zm-9,0v3.61h0.73V25H46a1.14,1.14,0,0,0,1.25-1.12,1.16,1.16,0,0,0-1.38-1.13H44.82Zm-7.49,0-1.43,3.61h0.78L37,25.5h1.48l0.3,0.81h0.82L38.16,22.7H37.32Zm43.36-22c-4.7,0-9.31,2.83-9.31,9.72s4.62,9.72,9.31,9.72S90,17.32,90,10.42,85.38,0.7,80.69.7h0Zm-51.89.22v19h3.85V12.79h2.47c4.86,0,6.6-3.42,6.6-5.92,0-1.19-.41-5.94-7.3-5.94H28.79Z" transform="translate(0 -0.7)"/>
  </g>
</svg>
