<svg xmlns="http://www.w3.org/2000/svg" width="62" height="46" viewBox="0 0 62 46">
    <g fill="#000" fill-rule="evenodd">
        <path d="M57.257 12.033C57.257 5.815 45.24.77 30.414.77 15.592.77 3.57 5.815 3.57 12.033c0 6.219 12.02 11.269 26.843 11.269 14.825 0 26.843-5.05 26.843-11.269M30.414 22.36c-13.338 0-24.162-4.621-24.162-10.326 0-5.294 9.344-9.669 21.362-10.26.048.007.09.047.09.088L25.52 14.465c-.004.054.023.102.071.114a.11.11 0 0 0 .066-.012c.477-.385.951-.821 1.401-1.294 2.232-2.342 3.45-5.1 3.352-7.17.004-.057.004-.116.004-.179 0-1.143-.641-2.116-1.566-2.563-.033-.016-.043-.057-.038-.098l.257-1.47c.005-.041.045-.07.085-.07.419-.012.84-.012 1.262-.012 13.348 0 24.158 4.615 24.158 10.322 0 5.705-10.81 10.326-24.158 10.326"/>
        <path d="M36.225 3.482a.086.086 0 0 0-.098.077c1.248 2.729.31 6.216-2.173 8.952-.03.107 0 .151.05.16.804.069 1.589.167 2.329.275a.079.079 0 0 1 .065.074l.13.73c-.017.082-.058.107-.097.102-.772-.21-1.42-.166-1.529.15-.101.31.327.752.995 1.108.779.455 1.228 1.014 1.228 1.618 0 1.551-3 2.812-6.712 2.812-2.979 0-5.774-.336-8.204-.923a.093.093 0 0 1-.071-.11l.165-.985c.01-.048.059-.082.102-.07 1.201.427 2.742.695 4.43.695 1.986 0 3.783-.37 5.011-.94 1.06-.497 1.704-1.158 1.704-1.881 0-.52-.358-1.015-.958-1.443a.082.082 0 0 0-.099.01c-.464.371-.956.713-1.486 1.036-1.816 1.096-3.735 1.687-5.53 1.79h-.07c-.74 0-1.35-.64-1.35-1.417 0-.09.013-.178.027-.261l2.014-11.604c-.006-.075-.043-.118-.088-.118-9.251.876-16.174 4.446-16.174 8.714 0 4.928 9.215 8.923 20.577 8.923 11.364 0 20.58-3.995 20.58-8.923 0-4.052-6.234-7.468-14.768-8.551M.89 28.927V45.83h11.813V42.73H5.395V28.927zM18.936 28.933L12.87 45.824h3.765l1.349-3.988h5.895l1.355 3.988h4.69l-6.128-16.891h-4.859zm1.996 3.894l2.11 6.155h-4.216l2.106-6.155zM44.04 31.123c-2.22-1.992-5.108-2.196-7.021-2.196h-6.597V45.82h7.074c2.083 0 4.294-.291 6.266-1.916 2.467-2.048 2.918-5.073 2.918-6.559 0-2.011-.84-4.621-2.64-6.222m-3.26 9.92C39.75 42.5 38.144 42.72 36.94 42.72h-2.027V32.028h1.943c1.092 0 2.557.106 3.677 1.233 1.206 1.256 1.32 3.062 1.32 3.943 0 .692-.032 2.388-1.071 3.838M51.038 28.927L44.975 45.82h3.757l1.35-3.99h5.898l1.349 3.99h4.687l-6.12-16.894h-4.858zm1.996 3.895l2.104 6.15h-4.216l2.112-6.15z"/>
    </g>
</svg>
