<svg xmlns="http://www.w3.org/2000/svg" xmlns:xlink="http://www.w3.org/1999/xlink" width="87" height="37" viewBox="0 0 87 37">
    <defs>
        <path id="a" d="M0 0h85.918v35.746H0z"/>
    </defs>
    <g fill="none" fill-rule="evenodd" transform="translate(.5 .918)">
        <mask id="b" fill="#fff">
            <use xlink:href="#a"/>
        </mask>
        <path fill="#231F20" d="M22.81 16.812h8.757V9.734H22.81v7.078zm4.413 3.263c-1.837 0-3.674.063-5.506-.02-1.89-.082-2.77-.981-2.814-2.864-.06-2.605-.02-5.212-.01-7.817 0-.294.061-.588.132-.872.282-1.169.979-1.808 2.167-1.978a7.41 7.41 0 0 1 1.089-.08c3.28-.007 6.557-.005 9.838-.005.182 0 .364 0 .546.012 1.934.165 2.821 1.091 2.846 3.042.026 2.034.014 4.065.004 6.099-.005.712.008 1.433-.082 2.138-.185 1.436-1.035 2.26-2.493 2.306-1.905.065-3.81.017-5.717.017v.022zM84.457 13.018c1.196.627 1.5 1.654 1.458 2.852-.014.42 0 .841-.002 1.261-.005 1.307-.67 2.282-1.925 2.644a7.841 7.841 0 0 1-2.026.308c-2.51.037-5.02.017-7.527.013a6.507 6.507 0 0 1-.924-.07c-1.363-.217-2.019-.924-2.099-2.363-.053-.964-.01-1.934-.01-2.95.146-.007.28-.021.414-.021.925-.003 1.851.01 2.777-.005.296-.005.39.09.381.381-.02.571-.005 1.142-.005 1.752.18.008.316.02.452.02 1.949.002 3.9.002 5.849 0 .685 0 .729-.046.729-.746.002-.323-.013-.647.004-.97.02-.396-.165-.563-.549-.563-.94.002-1.878 0-2.818-.003h-2.031V11.55h.447c1.372 0 2.748.003 4.12 0 .518 0 .571-.06.576-.588.003-.308.003-.617 0-.926-.005-.5-.077-.578-.593-.58-1.193-.005-2.383 0-3.576 0h-2.435v2.16h-3.55c.066-1.157.03-2.31.224-3.429.206-1.18 1.118-1.703 2.631-1.742.812-.022 1.626-.007 2.44-.007 1.837 0 3.674-.032 5.51.02.615.017 1.252.167 1.83.383.748.282 1.19.921 1.261 1.708.08.904.075 1.82.051 2.73-.02.747-.418 1.314-1.084 1.739M3.954 16.814h7.005V14.72h3.904c-.041 1.29.182 2.585-.299 3.829-.379.98-1.193 1.363-2.165 1.492-.303.041-.614.06-.923.06-2.93-.01-5.86.018-8.79-.058C1.013 20 .08 19.047.043 17.371c-.058-2.734-.06-5.467 0-8.2.04-1.748 1.03-2.676 2.892-2.71 3-.053 6.001-.017 9.004-.01.265 0 .53.054.79.102 1.113.22 1.834.89 1.992 2.003.144 1.003.139 2.028.2 3.063H10.97V9.73H3.954v7.085zM61.747 14.064c-.658-1.234-1.287-2.418-1.965-3.686-.698 1.264-1.356 2.452-2.039 3.686h4.004zm7.671 6.02c-.155.008-.277.025-.396.025-1.205 0-2.413-.01-3.618.007-.28.005-.43-.092-.556-.332-.372-.722-.778-1.427-1.154-2.148-.112-.212-.24-.294-.486-.294-2.301.01-4.6.01-6.9 0-.227 0-.348.07-.453.277-.367.724-.765 1.433-1.13 2.16-.123.24-.264.342-.546.337-1.203-.017-2.408-.007-3.693-.007.092-.187.148-.318.22-.442 2.43-4.29 4.865-8.582 7.29-12.875.15-.27.316-.37.622-.362.899.022 1.796-.003 2.692.02.148.002.36.104.43.225 2.54 4.39 5.064 8.789 7.59 13.189.032.056.05.121.088.22zM39.96 6.46h12.873V9.68h-8.978v10.395h-3.894zM85.893 25.75v.807H.038c-.01-.134-.021-.265-.026-.401-.005-.124-.003-.25-.003-.406h85.884zM.034.797h85.852V0H.034zM34.858 32.674c.566 0 1.096.029 1.62-.01.438-.032.683-.31.715-.692.031-.38-.173-.751-.547-.783-.585-.053-1.18-.014-1.788-.014v1.499zm.007 2.318c.617 0 1.19.039 1.76-.012.55-.049.78-.35.774-.858-.004-.49-.257-.797-.806-.838-.566-.044-1.137-.01-1.728-.01v1.718zm-.666.525v-4.901c.926 0 1.832-.041 2.731.014.501.032.824.394.924.904.114.566-.076.955-.69 1.402.505.192.848.496.92 1.045.103.785-.291 1.443-1.088 1.516-.911.083-1.837.02-2.797.02zM48.517 31.155c-.583 0-1.154-.034-1.72.01-.462.036-.739.394-.76.853-.023.48.193.85.667.92.596.09 1.205.083 1.852.115 0-.593.002-1.094 0-1.592-.003-.094-.025-.19-.04-.306zm.68 4.422h-.624v-1.982c-.382 0-.715-.02-1.04.01-.097.01-.204.13-.267.225-.26.401-.53.795-.746 1.22-.236.462-.54.697-1.125.476.199-.31.405-.629.614-.947.214-.328.428-.651.664-1.013-.09-.035-.146-.061-.204-.078-.873-.268-1.21-.795-1.094-1.713.09-.722.6-1.166 1.439-1.193.782-.027 1.567-.005 2.383-.005v5zM28.143 33.051c.048.311.068.605.138.89.2.794.741 1.214 1.54 1.226.803.013 1.369-.398 1.592-1.17.18-.62.175-1.25-.01-1.867-.223-.74-.772-1.147-1.52-1.154-.793-.005-1.34.377-1.568 1.14-.092.306-.119.629-.172.935m4.099.054c-.003 1.377-.576 2.235-1.689 2.536-1.526.408-2.814-.406-3.052-1.958a4.092 4.092 0 0 1-.014-1.13c.182-1.44 1.12-2.209 2.56-2.138 1.296.063 2.151.998 2.195 2.396.002.1 0 .196 0 .294M73.611 35.578h-.622v-4.42h-2.536v4.41h-.65V30.59h3.808zM79.069 31.153h-2.534v4.407h-.647v-4.964h3.81v4.974h-.63zM3.913 33.943h.581c.046.846-.637 1.614-1.543 1.752-1.72.26-2.874-.697-2.91-2.442a4.425 4.425 0 0 1 .101-1.042c.348-1.57 2.156-2.333 3.55-1.507.476.282.763.8.746 1.361-.36.1-.605.073-.743-.374-.146-.474-.576-.66-1.052-.707-.61-.056-1.181.068-1.502.63-.52.91-.564 1.873-.041 2.798.337.598.904.817 1.574.736.705-.08 1.089-.515 1.24-1.205M23.952 33.497c-.36.569-.72 1.06-.992 1.59-.25.493-.605.597-1.149.46.153-.24.296-.468.45-.69.344-.507.68-1.027 1.05-1.518.186-.248.162-.422-.008-.66-.476-.669-.928-1.356-1.4-2.051.705-.15.749-.134 1.091.4.309.487.617.965.96 1.502.338-.53.68-.991.94-1.494.248-.484.598-.55 1.116-.423-.443.656-.846 1.307-1.31 1.915-.275.362-.265.62.007.979.489.644.923 1.329 1.388 2.004-.615.195-.77.144-1.084-.347-.34-.532-.676-1.062-1.06-1.667M18.591 31.378a1.237 1.237 0 0 0-.094-.005l-.814 2.306h1.722c-.282-.797-.549-1.548-.814-2.3m2.202 4.174c-.693.092-.693.092-.902-.489-.282-.785-.282-.785-1.13-.785h-.167c-1.094 0-1.115-.007-1.475 1.006-.16.452-.464.28-.802.297.044-.149.066-.265.107-.374.544-1.444 1.096-2.877 1.625-4.323.095-.26.234-.333.494-.333.262 0 .396.075.49.335.572 1.546 1.162 3.084 1.76 4.666M40.87 33.675h1.724c-.284-.804-.554-1.562-.865-2.432-.308.877-.578 1.635-.86 2.432m3.11 1.861c-.678.124-.67.122-.882-.427-.393-1.016-.092-.8-1.185-.829h-.085c-.377.01-.836-.107-1.108.066-.248.162-.309.631-.426.976-.153.455-.49.205-.838.302.248-.656.46-1.213.67-1.774.382-1.008.754-2.02 1.155-3.02.05-.122.253-.243.391-.25.16-.008.433.068.476.18.625 1.571 1.218 3.158 1.832 4.776M83.604 31.364a1.14 1.14 0 0 0-.09.012l-.814 2.309h1.73c-.281-.795-.554-1.558-.826-2.32m2.18 4.178c-.503.16-.73.005-.872-.459-.253-.814-.285-.804-1.155-.804h-.04c-.392.01-.866-.112-1.15.068-.258.163-.32.649-.452 1-.156.419-.481.195-.812.244.192-.518.367-.982.542-1.448.41-1.086.834-2.17 1.23-3.26.094-.263.23-.331.49-.331.265 0 .396.077.491.335.537 1.458 1.094 2.908 1.643 4.364.031.087.053.18.085.291M12.236 33.054c.612-.04 1.186-.032 1.744-.122.443-.07.62-.413.622-.916.003-.415-.165-.75-.575-.809-.584-.08-1.181-.068-1.791-.095v1.942zm-.02.563v1.954h-.639v-4.95c.892 0 1.774-.065 2.64.02.738.073 1.078.6 1.08 1.368.003.819-.381 1.382-1.125 1.492-.62.092-1.25.08-1.956.116zM59.677 33.051c.608-.036 1.179-.029 1.735-.119.442-.07.637-.42.632-.911-.003-.45-.195-.78-.612-.824-.574-.058-1.157-.014-1.755-.014v1.868zm-.65-2.461c.845 0 1.659-.041 2.465.012.797.056 1.205.547 1.232 1.329.03.901-.352 1.463-1.166 1.577-.605.087-1.222.075-1.886.107v1.946h-.646V30.59zM64.045 30.6c.763-.09.763-.09 1.062.535.374.78.751 1.557 1.171 2.437l.656-1.623c.12-.3.27-.59.35-.9.127-.473.413-.583.892-.44l-.328.803c-.46 1.112-.914 2.23-1.383 3.338-.303.714-.631.918-1.35.894-.48-.017-.491-.034-.413-.576.16 0 .323.01.488-.002.527-.034.821-.544.583-1.016-.515-1.025-1.033-2.05-1.55-3.076-.056-.11-.107-.223-.178-.374M8.234 31.108v3.01c0 .365-.007.73.003 1.091.007.24-.017.394-.328.399-.33.005-.355-.158-.355-.413.007-1.179.005-2.352.005-3.53v-.535H5.94v-.53h3.89v.508H8.234zM54.11 35.571v-4.986h3.118c.129.508.107.544-.384.544-.67.003-1.341.003-2.075.003v4.439h-.658z" mask="url(#b)"/>
    </g>
</svg>
