<svg xmlns="http://www.w3.org/2000/svg" xmlns:xlink="http://www.w3.org/1999/xlink" width="119" height="30" viewBox="0 0 119 30">
    <defs>
        <path id="a" d="M.89.633h85.385v19.26H.889z"/>
    </defs>
    <g fill="none" fill-rule="evenodd">
        <path fill="#000" d="M13.689 3.558l7.086 9.697 7.116-2.815-6.587-8.134zM28.751 12.123l-6.326 3.466 2.88 7.84 3.341-3.936zM2.39 10.025l1.153 10.39 14.348-6.287-5.434-10.166zM4.46 21.612l3.35 6.99 16.087-4.223-4.6-8.096zM12.336.919L4.085 4.765l.8 1.561 6.465-3.938 3.229-.347zM0 15.564L2.36 25.94l2.84.514-2.44-6.094-1.022-5.836zM14.305 28.564l3.177 1.024 6.365-1.879.347-2.164z"/>
        <g transform="translate(32.62 5.652)">
            <mask id="b" fill="#fff">
                <use xlink:href="#a"/>
            </mask>
            <path fill="#000" d="M.95 4.55c.018 2.099.282 4.129 2.493 4.129 2.21 0 2.483-2.03 2.492-4.13.01-1.737-.263-3.774-2.472-3.774C1.213.775.949 2.812.949 4.55zm4.116.019c-.01 2.19-.23 3.351-1.623 3.351S1.828 6.76 1.818 4.569c-.012-1.685.311-3.038 1.604-3.038 1.333 0 1.654 1.353 1.644 3.038zm5.166 1.182c0 1.322-.23 2.22-1.18 2.22-.926 0-1.18-.898-1.18-2.22 0-1.697.364-2.343 1.18-2.343.838 0 1.18.646 1.18 2.343zM10.225.633c0 .292-.658.412-1.384.584-1.513.355-1.797 2.291-1.797 4.008 0 1.603.172 3.423 1.939 3.423 1.876 0 2.068-1.685 2.068-2.94 0-1.23-.192-2.956-1.946-2.956-.577 0-1.03.345-1.293.706h-.031c.021-.1.081-1.26 1.261-1.522 1.243-.273 1.736-.527 1.736-1.303h-.553zM14.079 5.9c.716 0 1.17.131 1.17.94 0 .93-.586.999-1.412.999h-.364v-1.94h.606zm-1.405-2.36v4.955h1.546c.314 0 .929-.082 1.3-.374.364-.26.527-.696.527-1.302 0-1.25-.728-1.573-2.03-1.573h-.544V2.884h-1.716v.655h.917zm5.008 1.563c.028-.666.05-1.695.979-1.695.928 0 .888 1.039.919 1.695h-1.898zm1.936 1.524c.05.637-.16 1.343-.926 1.343-1.123 0-.989-1.453-1.01-2.21h2.724c-.041-1.313.06-3.027-1.755-3.027-1.484 0-1.798 1.766-1.798 2.946 0 2.26.757 2.969 1.817 2.969 1.18 0 1.745-.92 1.695-2.02h-.747zm5.755 2.96V7.838h-.355V2.884h-3.25v3.42c0 .85-.06 1.312-.371 1.513-.022.012-.345.022-.345.022v1.747h.768V8.495h2.784v1.091h.769zM24.22 7.838h-1.977c.242-.362.292-.876.292-1.444V3.54h1.685v4.3zm5.853.656V2.884h-1.192l-1.45 4.258c-.101.292-.223.81-.223.81h-.01c.01-.235.02-.587.02-.83l.018-4.238h-.775v5.61h1.168l1.415-4.105c.11-.313.282-1.132.282-1.132h.02s-.039.878-.039 1.16l-.012 4.078h.778zm5.027 0V2.884h-.797v2.312h-1.98V2.884h-.797v5.61h.797V5.85h1.98v2.646h.797zm1.996-3.392c.032-.666.053-1.695.98-1.695.928 0 .888 1.039.919 1.695h-1.899zm1.94 1.524c.05.637-.163 1.343-.932 1.343-1.118 0-.986-1.453-1.008-2.21h2.727c-.04-1.313.06-3.027-1.757-3.027-1.484 0-1.798 1.766-1.798 2.946 0 2.26.759 2.969 1.817 2.969 1.183 0 1.748-.92 1.697-2.02h-.747zm5.591 1.868V2.884h-.8v2.312h-1.977V2.884h-.797v5.61h.797V5.85h1.978v2.646h.8zm5.044 0V2.884h-.797v2.312h-1.977V2.884H46.1v5.61h.798V5.85h1.977v2.646h.797zm3.634-1.667c0 .91-.666 1.142-.97 1.142-.646 0-.787-.364-.787-.928 0-.383.122-.798.495-.968.424-.203.867-.375 1.262-.605v1.36zm1.311 1.08a.93.93 0 0 1-.344-.01c-.16-.08-.14-.282-.14-.42v-3.22c0-.134.14-1.525-1.524-1.525-1.13 0-1.704.505-1.666 1.666h.718c-.012-.658.091-.991.816-.991.647 0 .889.242.889.878 0 .295.021.515-.151.647-.1.079-1.233.505-1.685.706-.778.344-.81 1.151-.81 1.362 0 1.02.324 1.647 1.446 1.647.534 0 1.049-.417 1.24-.91h.022c.079.769.333.83 1.008.8.062-.022.122-.031.181-.043v-.587zm4.24.587V2.884H57.31c-1.067 0-1.754.332-1.754 1.462 0 .555.21 1.161.816 1.324v.01c-.594.15-.716.584-.747 1.23-.01.263-.01 1.041-.15 1.374-.03.06-.06.11-.11.139v.072h.856c.041-.082.072-.192.091-.304.082-.393.082-.898.1-1.171.051-.776.324-1.02 1.042-1.02h.603v2.495h.8zm-.8-3.139h-.816c-.213 0-.898-.052-.898-.919 0-.744.355-.898 1.04-.898h.674v1.817zM5.43 12.696c.04-1.35-.706-2.42-2.14-2.42-2.15 0-2.4 2.137-2.4 3.844 0 1.805.078 4.057 2.41 4.057.727 0 1.252-.304 1.647-.85.361-.524.392-.988.443-1.603.019-.153.019-.314.04-.462h-.838c-.019.17-.03.34-.05.512-.1.828-.313 1.645-1.312 1.645-1.534 0-1.515-2.291-1.474-3.32 0-.999.021-3.067 1.474-3.067 1.051 0 1.343.766 1.362 1.664h.838zm4.268.344v-.658H6.156v.658H7.53v4.953h.797V13.04h1.371zm3.866 2.047c0 1.515-.263 2.382-1.091 2.382-1.099 0-1.068-1.51-1.068-2.291 0-.797.02-2.27 1.06-2.27 1.018 0 1.1 1.444 1.1 2.179zm-2.159 2.322c.302.455.625.74 1.19.74 1.515 0 1.798-1.738 1.798-3.332 0-1.152-.415-2.583-1.837-2.583-.454.028-.91.249-1.163.775h-.019v-.627h-.766v7.512h.797v-2.485zm6.418-1.08c0 .91-.666 1.14-.967 1.14-.647 0-.79-.362-.79-.927 0-.383.122-.797.495-.971.424-.2.867-.371 1.262-.601v1.36zm1.312 1.08c-.11.01-.233.022-.343-.01-.163-.081-.141-.282-.141-.423v-3.22c0-.132.141-1.522-1.525-1.522-1.13 0-1.707.502-1.666 1.663h.718c-.012-.653.091-.988.817-.988.646 0 .888.241.888.876 0 .292.021.517-.151.648-.1.08-1.23.506-1.685.707-.778.34-.807 1.149-.807 1.36 0 1.021.32 1.649 1.443 1.649.534 0 1.049-.417 1.24-.91h.022c.079.766.33.828 1.008.797.06-.019.122-.031.182-.043v-.584zm2.077-2.3l-1.714 2.884h.829l1.34-2.238 1.312 2.238h.828l-1.675-2.884 1.615-2.727h-.828l-1.24 2.02-1.252-2.02H19.6l1.613 2.727zm7.208-.113c0-1.695-.627-2.762-2.008-2.762-1.384 0-2.009 1.067-2.009 2.762 0 2.423.797 3.153 2.009 3.153 1.23 0 2.008-.718 2.008-3.153zm-.828.254c0 1.321-.232 2.219-1.18 2.219-.93 0-1.18-.898-1.18-2.22 0-1.694.361-2.34 1.18-2.34.837 0 1.18.646 1.18 2.34zm5.51 1.13c0-.644-.304-1.14-.929-1.322v-.01c.556-.212.788-.705.788-1.263 0-.443-.15-.836-.486-1.099-.311-.251-.766-.304-1.18-.304h-1.623v5.611h1.29c1.23 0 2.14-.251 2.14-1.613zm-.948-2.533c0 .756-.466.91-1.201.91h-.484V13.04h.453c.677 0 1.232.08 1.232.807zm.151 2.482c0 .778-.445 1.01-1.261 1.01h-.575v-1.938h.493c.757 0 1.343.14 1.343.928zm4.19 0c0 .91-.669 1.14-.973 1.14-.644 0-.785-.362-.785-.927 0-.383.122-.797.493-.971.426-.2.87-.371 1.264-.601v1.36zm1.309 1.08c-.11.01-.23.022-.343-.01-.16-.081-.14-.282-.14-.423v-3.22c0-.132.14-1.522-1.523-1.522-1.133 0-1.707.502-1.666 1.663h.715c-.01-.653.091-.988.817-.988.648 0 .89.241.89.876 0 .292.02.517-.15.648-.104.08-1.234.506-1.688.707-.776.34-.807 1.149-.807 1.36 0 1.021.323 1.649 1.443 1.649.537 0 1.051-.417 1.243-.91h.019c.081.766.333.828 1.01.797.06-.019.12-.031.18-.043v-.584zm4.239.584v-5.611h-1.544c-1.07 0-1.755.335-1.755 1.465 0 .555.211 1.161.817 1.324v.007c-.596.153-.716.589-.747 1.233-.012.26-.012 1.039-.153 1.371a.302.302 0 0 1-.11.142v.069h.859a1.12 1.12 0 0 0 .09-.302c.08-.392.08-.897.099-1.17.053-.776.325-1.02 1.041-1.02h.606v2.492h.797zm-.797-3.136h-.819c-.21 0-.895-.052-.895-.919 0-.747.352-.898 1.039-.898h.675v1.817zm5.702 3.136v-2.621l.787-1.03 2.05 3.651h1.029l-2.483-4.4 2.411-3.167h-1.049l-2.755 3.885v-3.885H46.1v7.567h.848zm8.498-2.997c0-1.695-.627-2.762-2.009-2.762-1.383 0-2.008 1.067-2.008 2.762 0 2.423.797 3.153 2.008 3.153 1.23 0 2.009-.718 2.009-3.153zm-.829.254c0 1.321-.232 2.219-1.18 2.219-.928 0-1.18-.898-1.18-2.22 0-1.694.362-2.34 1.18-2.34.838 0 1.18.646 1.18 2.34zm7.337 2.743v-5.611h-1.321l-1.11 3.947c-.101.374-.192 1.12-.192 1.12h-.022s-.088-.746-.191-1.12l-1.068-3.947h-1.352v5.611h.766v-4.268c0-.07-.022-.967-.022-.967h.022s.14.574.241.926l1.183 4.309h.867l1.18-4.316.244-.92h.019s-.02.899-.02.968v4.268h.776zm5.046 0v-5.611H63.43v5.611h.797V13.04h1.977v4.953H67zm3.634-1.664c0 .91-.668 1.14-.97 1.14-.646 0-.787-.362-.787-.927 0-.383.122-.797.496-.971.423-.2.866-.371 1.261-.601v1.36zm1.312 1.08c-.112.01-.232.022-.345-.01-.16-.081-.14-.282-.14-.423v-3.22c0-.132.14-1.522-1.523-1.522-1.13 0-1.707.502-1.666 1.663h.715c-.01-.653.091-.988.819-.988.646 0 .888.241.888.876 0 .292.022.517-.15.648-.101.08-1.234.506-1.686.707-.778.34-.81 1.149-.81 1.36 0 1.021.324 1.649 1.444 1.649.534 0 1.051-.417 1.243-.91h.019c.081.766.333.828 1.01.797.06-.019.12-.031.182-.043v-.584zm4.582.584v-5.611h-.797v2.312h-1.98v-2.312h-.797v5.611h.797v-2.64h1.98v2.64h.797zm5.065 0v-5.611H80.4l-1.453 4.261c-.1.292-.22.807-.22.807h-.01c.01-.233.02-.584.02-.829l.018-4.239h-.775v5.611h1.17l1.413-4.105c.11-.314.282-1.13.282-1.13h.022s-.041.878-.041 1.158l-.012 4.077h.778zm4.682 0v-5.611h-1.544c-1.07 0-1.754.335-1.754 1.465 0 .555.21 1.161.816 1.324v.007c-.596.153-.716.589-.747 1.233-.01.26-.01 1.039-.153 1.371-.029.063-.058.11-.11.142v.069h.859c.04-.079.07-.191.091-.302.079-.392.079-.897.1-1.17.05-.776.324-1.02 1.04-1.02h.605v2.492h.797zm-.797-3.136h-.819c-.21 0-.897-.052-.897-.919 0-.747.354-.898 1.039-.898h.677v1.817z" mask="url(#b)"/>
        </g>
    </g>
</svg>
