<svg xmlns="http://www.w3.org/2000/svg" xmlns:xlink="http://www.w3.org/1999/xlink" width="93" height="43" viewBox="0 0 93 43">
    <defs>
        <path id="a" d="M0 .182h31.49v41.885H0z"/>
        <path id="c" d="M0 42.275h91.974V.388H0z"/>
    </defs>
    <g fill="none" fill-rule="evenodd" transform="translate(.5 -.082)">
        <path fill="#000" d="M37.54 22.012c0 .87.365 1.142 1.666 1.142 1.308 0 1.906-.398 2.76-2.157h.306l-.306 2.76h-8.107v-.313c1.217-.309 1.34-.582 1.34-1.722v-6.783c0-.944-.235-1.216-1.34-1.487v-.309h5.023v.309c-1.05.271-1.342.49-1.342 1.415v7.145zM44.666 12.402c.654 0 1.181.525 1.181 1.174 0 .656-.527 1.2-1.18 1.2a1.208 1.208 0 0 1-1.197-1.2c0-.65.545-1.174 1.196-1.174zm1.018 9.881c0 .69.345 1.069 1.105 1.16v.311H42.49v-.31c.923-.182 1.142-.437 1.142-1.303v-3.648c0-.836-.235-1.07-1.234-1.269v-.31l2.976-.252h.309v5.621zM50.144 12.402h-.308l-2.774.198v.308c.635.108 1.033.435 1.033 1.015v9.831c1.034.198 2.049.268 3.338.268 3.337 0 4.606-1.739 4.606-3.842 0-1.994-1.418-3.536-3.264-3.536-.979 0-1.816.396-2.631 1.25v-5.492zm0 5.982c.69-.635 1.054-.817 1.597-.817 1.214 0 2.029 1.162 2.029 2.831 0 2.233-1.016 3.136-2.537 3.136-.817 0-1.089-.362-1.089-1.14v-4.01zM64.234 19.726c-.253-1.885-1.648-3.082-3.59-3.082-2.157 0-3.808 1.613-3.808 3.734 0 2.087 1.593 3.646 3.736 3.646 1.65 0 3.048-.907 3.662-2.376h-.304c-.656.999-1.454 1.487-2.451 1.487-1.27 0-2.539-1.158-2.43-3.409h5.185zm-5.186-.417c.055-1.307.615-2.177 1.453-2.177.83 0 1.45.907 1.521 2.177h-2.974zM70.803 19.291c-.6-.58-1.073-.888-1.544-.888-.617 0-.997.25-1.522.978v2.794c0 .815.161 1.07 1.156 1.269v.312h-4.349v-.312c.907-.219 1.14-.489 1.14-1.269v-3.609c0-.872-.378-1.27-1.248-1.342v-.31l2.99-.272h.31v2.177h.038c.67-1.489 1.413-2.177 2.265-2.177.451 0 .89.202 1.215.582l-.451 2.067zM82.35 16.914v.31c.872.18 1.07.725.455 2.175l-.943 2.194-1.45-2.992c-.421-.87-.421-1.27.361-1.377v-.31H74.71v-2.648h-.34c-.966 1.236-2.088 2.325-2.942 2.85v.345h1.234v4.387c0 1.56 1.034 2.174 2.323 2.174 1.017 0 1.687-.36 2.193-1.212l-.218-.2c-.325.382-.634.546-.997.546-.962 0-1.252-.654-1.252-1.761v-3.934h1.834c.997 0 1.29.362 1.726 1.285l2.502 5.276c-.835 2.25-1.558 3.155-2.829 3.155-.276 0-.492-.014-.925-.159l-.417 2.067c.256.039.399.039.58.039 1.416 0 2.194-.603 2.917-2.27l3.448-7.871c.562-1.267.78-1.522 1.65-1.759v-.31H82.35zM18.157 23.336c-.51.11-1.054.421-1.054.421v.445c.245.074.517.348.69.568l.393-.1-.168-.27s.241-.112.541-.124c.34-.018.654.049.818.196l.85-.202.112-.178c-.595-.466-1.43-.919-2.182-.756M16.462 20.051c-.272.272-.866 1.01-.644 1.755.25-.241.744-.617 1.062-.79l-.418-.965zM22.909 21.262c-.223-.223-1.68-1.111-2.078-1.311l-.465 1.21c.316.101 1.38.618 1.924.971l.619-.87zM19.72 20.967l.221-1.287c-.394-.198-.96-.32-1.478-.32-.52 0-1.087.146-1.383.37l.392 1.137c.545-.123 1.855-.176 2.249.1"/>
        <g transform="translate(0 .208)">
            <mask id="b" fill="#fff">
                <use xlink:href="#a"/>
            </mask>
            <path fill="#000" d="M25.817 22.881c-.027-.418-.513-1.556-.81-1.803l5.124-2.272-4.314 4.075zm-.47 7.52c-.22-.395-.402-.702-.631-1.312 0 0-.73-1.349-.87-1.612-.12-.23-.2-.564.02-.911.22-.343.772-.825 1.09-1.017l.08 1.687s1.101 2.085 1.585 3.166c-.453-.01-.88 0-1.274 0zm-6.585 1.715l-.493-1.696 1.13-1.58s-1.177.42-1.536.453c-.074.006-.641.114-.764-.437 0 0-.094-.374-.094-.523 0-.14.123-.313.247-.288.223.043.345-.05.345-.05l.237-.316c-.198-.024-.424-.084-.525-.084-.098 0-.277.088-.449.137-.098-.073-.251-.206-.2-.378h1.305l.027-.15s-.674-.301-.936-.315c-.261-.008-.372.14-.372.14v-.244l.742-.625-.766-.315-.42.076.27-1.728-.144-.303-.748.452-.022-.985c.022-.18.371-.525.651-.686l-.049-.597c-.296.182-.627.29-.823.562-.178.245-.396.617-.372.938-.22-.217-.27-.566-.22-.807.063-.34.196-.576.541-.872-.1-.28-.122-.789-.024-1.263.165-.776 1.062-2.273 3.237-2.285 1.285-.004 2.851.794 3.918 1.605 1.368 1.034 2.169 1.994 2.23 2.312.027.137.074.33.027.446-.15-.2-1.212-1.212-1.212-1.212l-.665.844 1.258 1.107c-.294.174-.595.31-1.085.245-.586-.071-1.877-.886-1.901-1.528-.527-.222-1.73-.586-2.72-.567a6.48 6.48 0 0 0-1.58.245c-.225.075-.388-.064-.56-.137l-.08.047.493.755c.147.076.425-.096.813-.167.666-.116 1.573-.018 2.249.368.47.271 1.779 1.358 2.05 1.632.27.27.69.345.889.171.196-.171.478-.167.453.051-.024.225-.134.47.092.566.205.092.321-.096.466-.198.151-.1.298-.125.472-.025-.125.248-.445.642-.717.864-.274.223-.69.421-.964.32l-.174.422 1.238 2.841c.323.652.368.827.631 1.264-2.42.399-4.649 1.191-5.396 1.498zm-6.628 3.417c.296-.666.686-2.568.792-3.205.143-.817.274-2.006 1.246-2.813.478-.392 1.264-.445 1.577-.353l1.379 2.81c.124.297.529.399.8.385-1.293.42-4.553 1.97-5.794 3.176zm-1.255.817c-.375.633-1.421 1.912-1.787 2.396.396-.79.703-2.698.678-4.18-.016-.961-.31-3.088-.055-4.495.276-1.51.705-2.36 1.714-3.293.517-.473 1.575-1.078 3.08-.67l1.222 2.294c-.654-.124-1.518-.014-2.092.427-1.083.831-1.446 1.95-1.626 3.587-.171 1.583-.555 2.953-1.134 3.934zM9.05 29.01c-.016-.112-.212-.756-.478-1.597-.594-1.88-1.54-4.743-1.597-4.843-.084-.15-.464-8.154-.476-8.434l.098-.071.33-.241v-.082c-.313-.014-.675-.13-.791-.315l-.115-2.45c-.071-.007-.139-.02-.208-.03-.356-.055-.688-.169-.827-.304-.205-.206-.364-.46-.135-.905.214.152.841.333 1.383.333.116 0 .36.256.494.31.139.054.345.164.482.232l.065.034c.025.01.045.033.066.06.073.096.122.271.147.349.035.102 4 10.392 4.067 10.507.067.114.296 1.844.312 1.975.006.057.114.327.243.635.184.433.415.936.48 1.013-.525-.014-1.389.288-2.096.98-.49.477-.933 1.35-1.203 2.068-.114.3-.2.574-.24.776zM6.151 16.163c-.2-.114-.74-.38-1.17-.363-.442.018-.817.108-1.167.33-.149-.1-.194-.298-.1-.526.096-.231.231-.266.231-.266l-.125-2.155s.607-.435.768-.48c.166-.053.241-.18.241-.343.268.182.664.586.879.889.196.281.312.592.329.937a6 6 0 0 1-.05 1.187c.133.116.264.214.28.396.017.182-.05.247-.116.394zm-2.633-3.441c-.118.08-.351.44-.4.655-.209-.128-.425-.592-.478-.792.186-.309.566-.605.745-.64-.214-.014-.56 0-.855.051a1.33 1.33 0 0 1-.082-.768l.327.015-.182-.45c.233-.198 1.105-.639 1.6-.655.046.224.048.408.032.49-.017.084-.05.184-.147.233-.1.049-.431.22-.431.22a5.56 5.56 0 0 1 .792.01c.145.015.215.048.215.197 0 .147-.041.298-.12.41-.087.119-.332.096-.46.113a.76.76 0 0 1 .083.367c0 .147-.047.215-.18.28-.132.065-.295.15-.459.264zM6.87 9.81c-.264-.25-.795-.713-1.914-.717-.925-.004-1.636.368-1.736.68-.065-.43-.014-.719.286-.974.33-.28.86-.435 1.387-.435.79 0 1.305.208 1.597.445.351.288.41.621.38 1zM1.26 9.229c-.1-.278-.225-.454-.198-.836.033-.43.317-.792.447-1.137.102-.276.047-.744-.07-.858.15-.033.45.151.66.1.264-.07.342-.16.442-.37.1-.216.233-.39.457-.404.205-.017.62.19.962.114.446-.1.623-.543.989-.543.361 0 .658.476 1.003.525.347.05.888-.362 1.236-.229.347.133.163.66.426.872.25.198.826-.035.99-.065-.048.229-.115.394-.099.643.018.245.415.989.427 1.248.018.333.035.61-.096.907-.035-.988-1.21-2.187-3.811-2.239-2.274-.042-3.832.873-3.765 2.272zm3.487-7.621c.55-.03 1.256.118 1.62.118.361 0 1.286-.09 1.5-.253.117.262.07.535-.07.776.28.15 1.072.295 1.4.278.658-.03 1.334-.392 1.577-.735.102.36.029.89-.292 1.18-.643.576-2.159.887-2.602 1.22-.368.27-.51.427-.61.658-.148-.148-.232-.27-.475-.244-.284.03-.429.311-.71.29-.364-.018-.644-.622-1.07-.639-.66-.026-.922.509-1.202.527-.198.012-.465-.28-.578-.427-.198-.263-.312-.71-.286-1.137.041-.693.597-1.547 1.798-1.612zm9.322 21.894l-1.33-.919c.015-.31-.067-.819-.088-1.085a1.006 1.006 0 0 0-.018-.114l1.667.803a1.48 1.48 0 0 0-.254.65c-.049.28-.012.434.023.665zm2.028-5.174c-.419.233-1.046.868-1.217 1.385l-3.12-5.319 4.337 3.934zm2.809-7.565l1.248 7.075c-.394-.196-1.624-.31-2.17-.212l.922-6.863zm7.602 3.605l-2.616 5.58c-.248-.2-1.281-1.066-1.771-1.242l4.387-4.338zm4.957 3.507c-.102-.137-.357-.027-.357-.027l-4.038 1.498a14.586 14.586 0 0 0-1.085-2.15l1.31-3.568s.163-.357.012-.443c-.153-.09-.399.147-.399.147l-2.375 1.947a10.177 10.177 0 0 0-3.264-2.357 10.492 10.492 0 0 0-1.454-.525l-.738-2.823s-.063-.282-.253-.282-.239.268-.239.268l-.472 2.494a12.706 12.706 0 0 0-1.601-.105c-1.771 0-3.342.337-4.723.956-.588.264-1.145.58-1.664.944-.086.061-.166.129-.251.192-.49-1.262-.877-2.292-.948-2.604.271-.247.843-1.146.982-1.753.196-.847.135-1.25-.07-1.895-.146-.47-.444-.91-.424-1.205a.763.763 0 0 1 .23-.484.538.538 0 0 0-.496-.478c-.222-.031-.396.034-.594.043-.049-.09-.15-.074-.073-.397.112-.486 1.047-.717 1.811-1.013.968-.376 1.51-1.074 1.542-2.192.025-.814-.429-1.42-.996-1.69-.117.328-.587.771-.915.951-.323.18-.773.245-1.095.172.07-.599-.207-1.111-.646-1.314-.139.254-.664.607-1.456.58-.79-.022-.842-.21-1.953-.208-1.58.004-2.89.956-3.051 2.357-.107.911.247 1.675.51 2.071-.198.147-.66.593-.743.725-.112-.132-.427-.312-.805-.063.08.198.096.44.033.67-.066.23-.644 1.35-.709 2.257-.112 1.53.772 2.57 1.514 2.864-.164.249-.197.51-.082.725.077.143.23.284.545.284a.74.74 0 0 0-.133.788c.133.331.511.807.84.807-.016.28.116.938.182 1.201-.115.217-.231.376-.215.774.017.409.282.742.609.807.082.2.145.417.26.55.116.13.216.292.465.455.247.163.529.298.858.298.329 0 .619.016.766-.035.01.094.039.967.075 1.935-.827 2.304-1.237 4.975-1.237 7.843v.002c0 5.137 1.462 9.719 4.26 12.668 0 0 .162.196.611.49 0 0 .876-1.501 2.208-3.2.337-.433.723-.848 1.148-1.25a27.918 27.918 0 0 1 1.912-1.524c1.72-1.175 3.713-2.067 5.556-2.45-2.114 1.092-3.311 1.672-5.295 3.375-1.258 1.077-3.26 2.98-4.628 5.584.284.227.668.46 1.121.505.29-.34 1.78-3.068 4.06-5.266 4.625-4.328 10.07-5.327 12.92-5.274.161-1.174.245-2.396.245-3.66 0-2.065-.216-4.032-.65-5.833l3.406-3.79s.234-.236.136-.37z" mask="url(#b)"/>
        </g>
        <mask id="d" fill="#fff">
            <use xlink:href="#c"/>
        </mask>
        <path fill="#000" d="M34.047 27.16h41.46v-.433h-41.46zM81.167 27.16h10.807v-.433H81.167zM40.948 37.567c-.104-.186-.306-.448-.54-.448-.14 0-.26.066-.428.13a5.161 5.161 0 0 1-1.871.355c-.872.001-1.952-.215-2.835-1.032-.596-.56-1.072-1.342-1.072-2.523 0-.604.122-1.58 1.107-2.465.576-.521 1.442-.956 2.745-.956.625 0 1.107.1 1.49.212.316.092.465.158.612.215a.699.699 0 0 0 .24.055c.123 0 .301-.074.532-.447h.14v2.347h-.214a4.661 4.661 0 0 0-.827-1.24c-.633-.66-1.321-.911-2.002-.911-.994 0-1.61.463-1.97 1.182-.142.28-.393.901-.393 2.008 0 .458.05 1.573.615 2.392.523.744 1.238.921 1.722.921.596 0 1.311-.27 1.971-.941.343-.344.688-.836.933-1.275h.184v2.42h-.139zM44.816 37.475h-2.169v-.215h.057c.531 0 .531-.175.531-.53v-3.134h-.175c-.654 0-.989.453-1.332 1.068l-.11.196-.178-.028.251-1.49h4.085l.251 1.49-.177.028-.113-.196c-.345-.615-.68-1.068-1.33-1.068h-.177v3.133c0 .356 0 .531.531.531h.055v.215zM47.792 36.693c.196.466.605.707.987.707.56 0 1.007-.511 1.007-1.555 0-1.338-.72-1.944-1.324-1.944-.26 0-.502.139-.67.298v2.494zm0 1.806c0 .353 0 .53.531.53h.055v.213h-2.167v-.212h.055c.531 0 .531-.178.531-.531v-3.816c0-.298.027-.699-.578-.717v-.206a7.171 7.171 0 0 0 1.573-.51v.52c.223-.202.67-.52 1.275-.52 1.099 0 1.805.939 1.805 2.13 0 1.47-1.023 2.242-1.991 2.242-.26 0-.688-.055-1.089-.335V38.5zM54.165 35.073c-1.136.29-1.638.793-1.638 1.303 0 .409.308.707.727.707.354 0 .754-.288.911-.41v-1.6zm1.87 1.816c-.27.694-.818.715-1.043.715-.725 0-.819-.456-.827-.652-.29.272-.819.66-1.536.66-.754 0-1.097-.427-1.097-.89 0-.979 1.424-1.52 2.633-1.861v-.495c0-.772-.68-.808-.819-.808-.696 0-.93.39-.93.808 0 .058.009.113.009.168 0 .372-.194.594-.513.594-.251 0-.51-.167-.51-.474 0-.214.102-.576.567-.874.513-.325 1.304-.53 1.99-.53.272 0 .83.038 1.09.455.14.216.158.502.158.92v2.086c0 .178 0 .39.233.39.167 0 .343-.185.437-.316l.157.104z" mask="url(#d)"/>
        <path fill="#000" d="M59.894 36.6c.188.25.457.64.968.64h.094v.235h-2.641v-.216c.23-.01.527-.035.527-.278 0-.084-.063-.196-.118-.27l-.605-.819-.803.893c-.053.055-.118.15-.118.233 0 .178.222.24.343.24v.217h-1.526v-.216c.597-.063.913-.419 1.173-.705l.782-.876-1.042-1.422c-.363-.496-.541-.672-.913-.698v-.217h2.374v.217c-.252 0-.476.045-.476.222 0 .056.01.15.157.354l.578.782.67-.754c.188-.206.212-.308.212-.353 0-.073-.063-.214-.408-.251v-.217h1.722v.217h-.047c-.586 0-.921.353-1.285.762l-.715.798 1.097 1.481z" mask="url(#d)"/>
        <path fill="#000" d="M64.294 35.426c0-.576-.063-1.963-1.125-1.963-1.024 0-1.118 1.265-1.118 1.963 0 .699.094 1.963 1.118 1.963 1.062 0 1.125-1.387 1.125-1.963m1.162 0c0 1.303-1.023 2.178-2.287 2.178-.764 0-1.228-.27-1.516-.52a2.153 2.153 0 0 1-.764-1.658c0-1.031.764-2.175 2.28-2.175 1.256 0 2.287.872 2.287 2.175M67.57 36.777c0 .222.102.465.667.465.252 0 .71 0 .979-.27.11-.112.233-.3.233-.643 0-.4-.16-.606-.28-.715-.168-.15-.364-.187-.576-.187h-1.024v1.35zm.79-1.581c.204 0 .4-.05.547-.151.235-.158.3-.372.3-.632 0-.224-.059-.52-.355-.698-.222-.129-.55-.139-.66-.139h-.623v1.62h.79zm-2.365 2.063h.057c.261 0 .52-.027.52-.325v-2.845c0-.354 0-.531-.528-.531h-.056v-.217H68.9c.503 0 .83.141 1.013.28.29.216.374.502.374.709 0 .306-.167.547-.4.698-.178.11-.437.174-.623.202v.05c.27.034.65.138.882.296.355.232.42.55.42.79 0 .55-.373.8-.68.921-.363.14-.81.188-1.431.188h-2.46v-.216zM73.903 35.073c-1.136.29-1.639.793-1.639 1.303 0 .409.309.707.728.707.355 0 .753-.288.91-.41v-1.6zm1.87 1.816c-.27.694-.816.715-1.043.715-.723 0-.817-.456-.827-.652-.288.272-.817.66-1.534.66-.754 0-1.1-.427-1.1-.89 0-.979 1.424-1.52 2.634-1.861v-.495c0-.772-.679-.808-.817-.808-.699 0-.932.39-.932.808 0 .058.008.113.008.168 0 .372-.194.594-.51.594-.252 0-.513-.167-.513-.474 0-.214.102-.576.57-.874.51-.325 1.301-.53 1.99-.53.269 0 .829.038 1.088.455.139.216.16.502.16.92v2.086c0 .178 0 .39.23.39.168 0 .345-.185.44-.316l.157.104zM77.605 36.729c0 .355 0 .53.53.53h.056v.215h-2.167v-.214h.055c.513 0 .531-.15.531-.531v-2.641c0-.382-.018-.531-.531-.531h-.055v-.215h2.167v.215h-.055c-.531 0-.531.177-.531.53v1.153h2.018v-1.152c0-.382-.019-.531-.53-.531h-.056v-.215h2.169v.215h-.057c-.53 0-.53.177-.53.53v2.642c0 .355 0 .53.53.53h.057v.215h-2.17v-.214h.058c.529 0 .529-.176.529-.531v-1.236h-2.018v1.236zM86.888 33.557h-.055c-.53 0-.53.178-.53.531v2.641c0 .356 0 .53.53.53h.055v.216H84.72v-.217h.057c.529 0 .529-.173.529-.529v-2.418l-2.01 2.633c.01.196.102.314.521.314h.055v.217h-2.167v-.217h.055c.513 0 .531-.147.531-.529v-2.64c0-.385-.018-.532-.53-.532h-.056v-.214h2.167v.214h-.055c-.531 0-.531.178-.531.531v2.437l2.012-2.643c-.01-.223-.13-.325-.521-.325h-.057v-.214h2.167v.214zM89.92 34.692c.419 0 .492-.065.492-.27 0-.473-.343-.941-.864-.941-.931 0-1.015 1.005-1.023 1.211h1.395zm1.63 1.377c-.468 1.044-1.146 1.536-2.096 1.536-1.199 0-2.036-.856-2.036-2.067 0-1.283.921-2.288 2.167-2.288 1.033 0 1.824.65 1.926 1.712h-3.013c-.083.876.39 1.777 1.46 1.777.538 0 1.08-.251 1.45-.772l.142.102z" mask="url(#d)"/>
    </g>
</svg>
