<svg xmlns="http://www.w3.org/2000/svg" xmlns:xlink="http://www.w3.org/1999/xlink" width="103" height="28" viewBox="0 0 103 28">
    <defs>
        <path id="a" d="M.131.167H4.53v5.382H.13z"/>
    </defs>
    <g fill="none" fill-rule="evenodd">
        <path fill="#000" d="M35.482 13.331l-3.117 5.07v-5.07H26.73v14.082h5.635v-5.348l2.955 5.348h6.48l-4.93-7.403 4.789-6.679zM25.309 26.972c-.886.461-2.091.865-3.782.865-4.586 0-7.846-2.958-7.846-7.462 0-5.11 4.186-7.464 7.766-7.464 1.147 0 2.736.281 3.862 1.064v4.929c-.865-1.065-2.132-1.487-3.12-1.487-2.09 0-3.096 1.387-3.096 3.096 0 1.792 1.308 2.818 3.078 2.818 1.247 0 2.334-.563 3.138-1.287v4.928zM6.133 23.944V21.83h.683c.545 0 1.408.102 1.408 1.047 0 .987-.884 1.067-1.408 1.067h-.683zM.5 13.242v14.08h8.327c3.903 0 4.75-2.493 4.75-3.92 0-1.912-1.308-3.3-3.12-3.601v-.041c1.167-.34 2.455-1.349 2.455-2.938 0-1.085-.423-3.58-4.466-3.58H.5zm5.633 5.353V16.62h.522c.987 0 1.248.504 1.248.988 0 .483-.26.987-1.248.987h-.522zM74.716 15.124l-1.605.062-.15-.386-1.544-.105-.011-.281-1.66-.023.273.584.74.081-.091-.19.672.44 1.115.243.74.027 1.864-.243zM70.619 13.759l-.758-.1s.02-.257-.277-.4c-.295-.143-.23-.01-.23-.01l-.288-.207-.529-.089-.045-.388-.688-.034.016-.193-.54-.064-.228-.2.07-.222-.133-.202-.645-.298-.543-.208-.356-.4-.422-.36-.547-.523-1.365-.468-1.291-.928-.525-.22-.556-.266-1.176-.62-1.735-.944-3.834-1.816-1.092-.475c-.622-.263-.722-.404-.735-.481-.561-.13-.75-.225-1.042-.513-.3.011-.96-.359-1.142-.534 0-.009-1.129-.329-1.201-.395-.003-.066-2.933-1.074-3.292-1.162-.254-.018-.965-.148-1.06-.19-.118 0-.57-.137-.752-.157-.61-.069-1.192-.162-1.818-.168-.45-.007-.706-.003-1.099-.096-.139.084-1.056-.075-1.385.16-.365.013-1.205.194-1.437.306-.502.02-1.355.556-1.641.694-.146.066-.298.136-.45.21.917.315 1.955.69 1.957.728.075.063 1.201.386 1.203.395.18.175.843.545 1.142.533.293.289.48.384 1.042.513.014.08.114.216.734.48l1.094.472 3.832 1.82 1.734.945 1.176.62.557.265.524.218.431.309.845.322 1.905.604 2.302.876.858.289.865.259.406-.073.447.152.5.434.506-.162.343.057.27.348.18.208.433.125.429.055.508-.091.602.048.209.35.835.142.602.043.6.046.46.209.42.447.604.118 1.56.222 1.41-.165.917.043.329-.243zM57.98 15.987l1.66.025.01.28 1.547.106.147.388 1.605-.066.345.211-1.864.243-.742-.025-1.112-.245-.672-.44.09.19-.737-.084z"/>
        <path fill="#000" d="M58.155 15.322s.02-.257-.275-.402c-.295-.14-.23-.011-.23-.011l-.29-.205-.529-.09-.045-.389-.688-.034.018-.19-.543-.064-.227-.2.073-.222-.136-.202-.645-.3-.54-.207-.357-.4-.424-.362-.547-.523-1.362-.465-1.294-.93-.525-.219-.556-.268-1.176-.617-1.734-.945L42.29 6.26l-1.094-.474c-.622-.264-.72-.402-.735-.482-.561-.13-.75-.224-1.042-.51-.298.01-.96-.362-1.14-.534-.002-.01-1.128-.334-1.203-.395-.003-.064-2.931-1.076-3.29-1.162-.256-.019-.965-.148-1.062-.193-.118 0-.57-.137-.752-.155-.608-.068-1.192-.163-1.818-.17-.45-.007-.704-.002-1.099-.095-.138.086-1.056-.075-1.383.159-.367.015-1.205.197-1.439.306-.5.02-1.355.556-1.641.695-.252.118-.54.24-.774.383-.114.089-1.717.859-1.823.956.025.057-1.571.979-1.721 1.117-.066.07-.49.238-.597.336-.114.102-.538.477-.681.545-.064.132-.47.272-.534.404-.097.132-.581.356-.658.447l-.495.398-.27.345c-.105.04-.531.283-.643.363.01.247.03.64-.372.567-.011-.009-.46.28-.472.27.059-.002-.248.434-.5.745-.15.177-.837.42-.974.606-.274.375-.628.72-.903 1.086v.029c.009-.002.02-.002.032-.002.002.05.265.04.302.143.054.143-.107.272-.148.402h.032l.002.03c.211-.01.42-.228.59-.316.143-.053.289-.11.43-.162l.762-.442 5.694-3.015c.91-.477 1.63-.922 2.633-1.462.241-.127 1.154-.729 1.841-.77.875-.059 1.923.16 2.203.275.267.093.928.42 1.26.497.102.036.292.173.338.17.032.043.658.139.987.257.116.066.227.134.34.2.544.152 1.901.465 2.391.613.416.122.663.352.87.395.286.193.343.095.695.26.524.053.846.237.865.25.163.066.272.134.435.2.137.018.395.214.5.261.123.025.974.28 1.062.323.141-.014.747.24.822.304.173.08.366.12.559.161l1.743.663 1.903.604 2.302.876.86.286.863.261.406-.072.45.15.497.435.506-.163.345.059.27.345.18.209.431.127.431.054.509-.093.6.05.21.35.836.14.601.046.6.046.46.206.42.45.602.118 1.56.222 1.41-.166.919.044.327-.243-.758-.1zM46.493 26.84c-.27.14-.629.256-1.114.256-.793 0-1.272-.261-1.653-.61-.52-.489-.722-1.034-.722-1.68 0-.798.338-1.372.722-1.72.454-.417 1.017-.58 1.66-.58.315 0 .694.052 1.107.27v1a1.467 1.467 0 0 0-1.087-.492c-.908 0-1.496.724-1.496 1.532 0 .977.772 1.503 1.528 1.503.42 0 .792-.177 1.055-.479v1zM49.064 26.999h-.879v-3.655H47.17v-.74h2.909v.74h-1.015zM50.97 22.605V27h.88v-1.628h.568c.522 0 .892-.145 1.142-.388.345-.338.372-.813.372-.983 0-.316-.095-.745-.459-1.063-.331-.281-.683-.333-1.19-.333H50.97zm.88.737h.302c.211 0 .44.014.625.139.127.093.25.256.25.5 0 .19-.082.388-.244.515-.19.138-.406.138-.576.138h-.357v-1.292zM57.7 26.999h.947l-1.9-4.488h-.663l-1.955 4.488h.954l.397-.922h1.82l.4.922zm-1.94-1.621l.648-1.58.634 1.58h-1.283zM60.649 24.68l-1.346-2.075h1.055l.793 1.364.83-1.364h1.056L61.65 24.68l1.544 2.318h-1.058l-.985-1.608-1.042 1.608h-1.056zM66.37 22.505c-1.419 0-2.409.963-2.409 2.3 0 1.34.99 2.29 2.409 2.29 1.419 0 2.409-.95 2.409-2.29 0-1.337-.99-2.3-2.41-2.3m0 3.816c-.878 0-1.5-.626-1.5-1.516s.622-1.521 1.5-1.521c.88 0 1.504.63 1.504 1.52s-.624 1.517-1.503 1.517M70.807 25.088h.325c.19 0 .413 0 .602.086a.524.524 0 0 1 .331.502c0 .17-.061.381-.277.504-.195.113-.44.12-.602.12h-.379v-1.212zm-.878-2.484V27h1.514c.393 0 .804-.068 1.144-.356.311-.273.386-.634.386-.89 0-.232-.054-.572-.325-.822a1.06 1.06 0 0 0-.59-.277.94.94 0 0 0 .506-.863c0-.37-.154-.712-.417-.91-.366-.277-.854-.277-1.104-.277H69.93zm.878.7h.257c.359 0 .679.15.679.551 0 .56-.55.574-.686.574h-.25v-1.126zM76.313 22.505c-1.419 0-2.408.963-2.408 2.3 0 1.34.99 2.29 2.408 2.29 1.421 0 2.409-.95 2.409-2.29 0-1.337-.988-2.3-2.409-2.3m0 3.816c-.878 0-1.503-.626-1.503-1.516s.625-1.521 1.503-1.521c.879 0 1.5.63 1.5 1.52s-.621 1.517-1.5 1.517M81.25 21.201c.144.37.523.384.609.384.088 0 .468-.014.61-.384l.61.236c-.178.45-.598.738-1.22.738s-1.04-.288-1.217-.738l.609-.236zm-.501 1.403v2.952l2.49-3.052h.609V27h-.879v-2.965l-2.488 3.05h-.608v-4.48h.876z"/>
        <g transform="translate(86.549 22.438)">
            <mask id="b" fill="#fff">
                <use xlink:href="#a"/>
            </mask>
            <path fill="#000" d="M1.012.167v1.91c0 .605-.075.937-.163 1.155-.134.327-.393.604-.718.59V5.55h.813v-.988h2.772v.988h.813V3.822h-.475V.167H1.012zm.852.738h1.312v2.917h-1.82c.128-.116.258-.277.353-.52.082-.209.155-.545.155-1.226V.905z" mask="url(#b)"/>
        </g>
        <path fill="#000" d="M94.189 22.505c-1.421 0-2.409.963-2.409 2.3 0 1.34.988 2.29 2.409 2.29 1.419 0 2.406-.95 2.406-2.29 0-1.337-.987-2.3-2.406-2.3m0 3.816c-.88 0-1.503-.626-1.503-1.516s.622-1.521 1.503-1.521c.879 0 1.5.63 1.5 1.52s-.621 1.517-1.5 1.517M97.516 26.999l.84-4.475h.608l1.224 2.874 1.278-2.874h.608l.758 4.475h-.892l-.406-2.706-1.237 2.763h-.246l-1.182-2.763-.459 2.706zM43.1 14.615h.332c.159 0 .265-.025.324-.07a.232.232 0 0 0 .087-.187.235.235 0 0 0-.041-.136.29.29 0 0 0-.118-.086.816.816 0 0 0-.273-.03h-.31v.509zm-.268.94v-1.671h.575c.195 0 .338.015.424.045a.415.415 0 0 1 .211.161c.053.077.08.16.08.245 0 .123-.046.23-.132.318a.519.519 0 0 1-.347.152.405.405 0 0 1 .14.089c.069.066.15.177.248.334l.204.326h-.327l-.15-.265c-.117-.207-.21-.336-.281-.388-.05-.041-.123-.057-.218-.057H43.1v.71h-.268zm.681-2.153a1.3 1.3 0 0 0-.635.168 1.22 1.22 0 0 0-.484.477 1.32 1.32 0 0 0-.175.647c0 .222.06.438.173.64a1.305 1.305 0 0 0 1.121.652c.223 0 .436-.06.643-.173a1.21 1.21 0 0 0 .477-.479 1.294 1.294 0 0 0-.003-1.287 1.192 1.192 0 0 0-.483-.477 1.298 1.298 0 0 0-.634-.168zm0-.256c.26 0 .513.066.76.2.248.133.441.324.58.572.138.25.206.506.206.776 0 .266-.068.524-.204.77a1.465 1.465 0 0 1-.572.574 1.563 1.563 0 0 1-1.542 0 1.465 1.465 0 0 1-.572-.574 1.57 1.57 0 0 1-.204-.77c0-.27.068-.527.207-.776.138-.248.333-.439.58-.572.248-.134.5-.2.761-.2z"/>
    </g>
</svg>
