<svg xmlns="http://www.w3.org/2000/svg" width="109" height="28" viewBox="0 0 109 28">
    <g fill="#000" fill-rule="evenodd">
        <path d="M10.098 5.944c-.943 0-1.642.416-2.203 1.307-.593.95-.895 2.28-.895 3.953 0 1.822.286 3.222.846 4.155.535.89 1.264 1.319 2.225 1.319.826 0 1.56-.432 2.12-1.253.55-.81 1.005-2.21 1.469-4.527-.37-1.714-.885-3.044-1.497-3.854-.569-.751-1.226-1.1-2.065-1.1"/>
        <path d="M19.988 14.768c0 1.178-.135 1.9-.463 2.479-.371.655-1.091 1.06-1.886 1.06-.76 0-1.469-.374-1.943-1.022-.29-.4-.536-.936-.777-1.721-.578.794-1.19 1.406-1.86 1.85-1.035.683-2.153 1.032-3.325 1.032-2.01 0-3.544-.648-4.829-2.04-1.228-1.335-1.853-3.105-1.853-5.26 0-1.935.657-3.675 1.9-5.031C6.205 4.75 7.786 4.058 9.656 4.058c1.352 0 2.475.44 3.429 1.335.549.515 1.041 1.248 1.35 1.907l.047.106c.308-1.469.65-3.08.65-3.08h3.703s-1.95 6.876-2.585 9.022c.225.616.445.954.69 1.237a.958.958 0 0 0 .766.351c.407 0 .652-.396.684-.785l.006-.101h1.593v.718zM15.844.002H6.712A6.715 6.715 0 0 0 .001 6.711v9.134a6.716 6.716 0 0 0 6.711 6.71h9.132c3.699 0 6.711-3.011 6.711-6.71V6.711c0-3.701-3.012-6.709-6.71-6.709zM29.95 6.836l.408-1.847c.065-.3.3-.754.909-.754.61 0 .841.455.909.754l.407 1.847h-2.632zm3.895-2.185c-.256-1.15-.983-1.957-2.578-1.957-1.5 0-2.322.808-2.578 1.957l-1.159 5.22h1.237a.668.668 0 0 0 .624-.502l.236-1.062h3.28l.234 1.062c.06.275.342.502.626.502h1.237l-1.159-5.22zM38.056 4.437h2.763V9.87h1.71V2.864h-5.157c-.565 0-1.026.461-1.026 1.026v3.541c0 .473-.218.774-.599.85l-.35.084.317 1.505h.326c1.17 0 2.016-.87 2.016-2.35V4.436M57.388 8.323h-.621v-3.91h.62c1.173 0 1.724.74 1.724 1.953 0 1.217-.55 1.957-1.723 1.957zm-2.956 0c-1.17 0-1.724-.74-1.724-1.957 0-1.213.554-1.953 1.724-1.953h.623v3.91h-.623zm2.956-5.46h-.621v-.812h-1.2a.512.512 0 0 0-.512.51v.302h-.623c-2.113 0-3.434 1.442-3.434 3.503 0 2.063 1.321 3.503 3.434 3.503h.623v.848h1.197c.283 0 .515-.23.515-.51v-.338h.62c2.114 0 3.436-1.44 3.436-3.503 0-2.06-1.322-3.503-3.435-3.503zM47.834 8.297h-2.455V6.214h2.455c.418 0 .904.373.904 1.041 0 .669-.486 1.042-.904 1.042m0-3.656h-2.455V2.866h-1.71v6.493c0 .281.232.51.513.51h3.652c1.492 0 2.614-1.122 2.614-2.614 0-1.491-.942-2.614-2.614-2.614M63.306 6.836l.407-1.847c.068-.3.3-.754.909-.754.61 0 .841.455.909.754l.407 1.847h-2.632zM67.2 4.651c-.256-1.15-.983-1.957-2.578-1.957-1.5 0-2.322.808-2.578 1.957l-1.159 5.22h1.24a.667.667 0 0 0 .62-.502l.237-1.062h3.28l.234 1.062c.06.275.342.502.626.502h1.237L67.2 4.651zM75.54 18.246h-3.152v-1.382h3.152c.23.027.538.252.538.69 0 .437-.308.692-.538.692zm-.137-4.097c.227 0 .538.254.538.688 0 .441-.31.664-.538.69h-3.015V14.15h3.015zm1.71 1.916c.301-.297.495-.701.495-1.262 0-1.242-.96-2.11-2.203-2.11h-4.18a.516.516 0 0 0-.513.513v5.98c0 .283.232.513.513.513h4.444c1.309 0 2.18-.938 2.18-2.178 0-.625-.297-1.114-.736-1.456zM64.073 16.195c0-1.255.67-2.216 1.847-2.216h.38c1.179 0 1.847.961 1.847 2.216 0 1.258-.668 2.219-1.847 2.219h-.38c-1.177 0-1.847-.96-1.847-2.219m1.745-3.662c-2.114 0-3.593 1.505-3.593 3.662 0 2.158 1.479 3.665 3.593 3.665h.585c2.115 0 3.591-1.507 3.591-3.665 0-2.157-1.476-3.662-3.59-3.662h-.586M33.903 12.693l.228 1.06a.665.665 0 0 0 .62.513h1.593v5.433h1.712v-5.433H39.6c.283 0 .562-.23.62-.513l.228-1.06h-6.545M91.509 12.693v2.781H88.18v-2.78h-1.71v7.005h1.71v-2.722h3.328V19.7h1.71v-7.006zM49.913 16.666l.408-1.847c.065-.3.297-.756.906-.756.612 0 .844.456.911.758l.408 1.845h-2.633zm3.893-2.185c-.255-1.152-.981-1.957-2.579-1.957-1.498 0-2.32.805-2.576 1.957l-1.158 5.22h1.24a.672.672 0 0 0 .622-.502l.234-1.064h3.28l.235 1.064c.06.274.342.502.623.502h1.24l-1.161-5.22zM80.662 16.666l.407-1.847c.067-.3.299-.756.909-.756.61 0 .841.456.909.758l.407 1.845h-2.632zm3.894-2.185c-.254-1.152-.98-1.957-2.578-1.957-1.5 0-2.322.805-2.579 1.957l-1.158 5.22h1.24a.668.668 0 0 0 .623-.502l.234-1.064h3.28l.236 1.064c.06.274.342.502.623.502h1.24l-1.161-5.22zM34.436 19.68v.02h-3.34c-2.023 0-3.436-1.442-3.436-3.505 0-2.06 1.413-3.5 3.435-3.5h2.533l-.247 1.073a.677.677 0 0 1-.628.5h-1.658c-1.082 0-1.726.805-1.726 1.927 0 1.123.644 1.933 1.726 1.933h2.468c.284 0 .567.223.63.497l.243 1.055M45.03 16.35h-2.452v-2.082h2.452c.419 0 .905.372.905 1.04s-.486 1.041-.905 1.041m0-3.656H41.38a.515.515 0 0 0-.513.516v6.49h1.712v-1.777h2.452c1.674 0 2.615-1.123 2.615-2.614 0-1.49-1.123-2.615-2.615-2.615M107.716 18.22h-3.683v-1.346h4.005v-1.35h-4.005v-1.352h3.683c.304 0 .545-.133.628-.5l.227-.978h-5.734a.513.513 0 0 0-.513.513v5.98c0 .283.23.513.513.513h5.734l-.227-.98c-.083-.364-.324-.5-.628-.5M94.391 19.7v-7.006h1.71v4.621l2.965-4.21c.167-.224.531-.41.817-.41h1.267V19.7h-1.71v-4.623l-2.965 4.207c-.165.23-.534.416-.815.416h-1.269"/>
        <path d="M60.124 16.158l2.387-3.465h-1.57c-.342 0-.58.104-.79.432l-1.27 1.998h-.228l-1.273-1.998c-.207-.328-.446-.432-.788-.432H54.97l2.439 3.54-2.387 3.466h1.57c.342 0 .58-.103.788-.432l1.273-1.997h.227l1.271 1.997c.21.329.448.432.79.432h1.62l-2.437-3.54M27.799 25.045c0-.904.61-1.725 1.66-1.725.427 0 .704.094.952.256l-.223.338a1.239 1.239 0 0 0-.738-.219c-.776 0-1.174.637-1.174 1.341 0 .714.384 1.373 1.183 1.373.362 0 .621-.12.812-.281l.2.321c-.17.162-.549.342-1.021.342-1.062 0-1.651-.839-1.651-1.746M31.11 23.38h1.767v.383h-1.314v1.01h1.152v.378h-1.152v1.199h1.35v.382H31.11zM34.502 25.037c.56 0 .79-.228.79-.66 0-.373-.212-.623-.774-.623h-.392v1.283h.376zm-.837-1.656h.891c.69 0 1.204.326 1.204.985 0 .67-.468 1.042-1.258 1.042h-.376v1.325h-.461V23.38zM37.35 26.364c.554 0 .81-.171.81-.574 0-.387-.204-.623-.78-.623h-.482v1.197h.453zm-.02-1.553c.484 0 .696-.18.696-.555 0-.354-.239-.509-.684-.509h-.444v1.064h.432zm-.886-1.43h.931c.626 0 1.112.224 1.112.834 0 .405-.232.65-.599.745v.011c.408.07.745.358.745.819 0 .686-.517.943-1.273.943h-.916V23.38zM39.353 23.38h.423v2.239c0 .252-.016.41-.02.468h.011c.054-.09.155-.266.322-.507l1.498-2.2h.453v3.352h-.417v-2.385c0-.17.016-.324.016-.382h-.011c-.056.094-.162.281-.27.448l-1.582 2.32h-.423V23.38zM42.77 25.045c0-.904.61-1.725 1.66-1.725.43 0 .706.094.952.256l-.22.338a1.251 1.251 0 0 0-.741-.219c-.774 0-1.172.637-1.172 1.341 0 .714.382 1.373 1.18 1.373.363 0 .622-.12.813-.281l.2.321c-.17.162-.549.342-1.021.342-1.062 0-1.651-.839-1.651-1.746M48.115 26.36c.563 0 .794-.232.794-.649 0-.369-.216-.618-.774-.618h-.492v1.266h.472zm-.931-2.98h1.896v.383h-1.437v.956h.53c.687 0 1.2.322 1.2.977 0 .668-.468 1.037-1.258 1.037h-.931V23.38zM49.962 26.71l.06-.346a.614.614 0 0 0 .16.016c.277 0 .439-.166.594-.524l.086-.191-1.01-2.284h.436l.796 1.796.79-1.796h.437l-1.161 2.641c-.232.525-.509.72-.968.72a.557.557 0 0 1-.22-.031M54.622 26.35v-2.587h-1.073l-.135 1.418c-.061.645-.192.976-.374 1.17h1.582zm-2.351 0h.267c.261-.222.363-.528.428-1.244l.166-1.725h1.949v2.97h.34l-.104 1.104h-.313l-.036-.722h-2.254l-.07.722h-.313l-.06-1.105zM55.98 26.71l.061-.346a.614.614 0 0 0 .16.016c.277 0 .437-.166.594-.524l.086-.191-1.01-2.284h.436l.796 1.796.79-1.796h.436l-1.16 2.641c-.232.525-.509.72-.968.72a.557.557 0 0 1-.22-.031M62.88 26.733h-3.976V23.38h.46v2.97h1.356v-2.97h.454v2.97h1.359v-2.97h.457v2.97h.348l-.112 1.105h-.31zM64.036 23.38h1.769v.383h-1.316v1.01h1.154v.378h-1.154v1.199h1.35v.382h-1.803zM66.594 23.38h1.802v.378H67.05v2.974h-.456zM71.515 25.06c0-.728-.398-1.363-1.172-1.363-.776 0-1.192.626-1.192 1.355s.407 1.363 1.18 1.363c.777 0 1.184-.625 1.184-1.354m-2.844 0c0-.92.61-1.74 1.66-1.74 1.047 0 1.668.808 1.668 1.73 0 .914-.61 1.742-1.656 1.742-1.053 0-1.672-.816-1.672-1.732M74.73 26.364c.554 0 .81-.171.81-.574 0-.387-.204-.623-.78-.623h-.482v1.197h.453zm-.02-1.553c.484 0 .696-.18.696-.555 0-.354-.239-.509-.684-.509h-.444v1.064h.432zm-.884-1.43h.93c.625 0 1.11.224 1.11.834 0 .405-.229.65-.598.745v.011c.408.07.745.358.745.819 0 .686-.517.943-1.273.943h-.914V23.38zM77.836 23.38h.457v1.4h1.818v-1.4h.457v3.352h-.457v-1.57h-1.818v1.57h-.457zM83.226 25.564l-.399-1.08c-.105-.281-.15-.44-.202-.58h-.009a8.43 8.43 0 0 1-.196.58l-.402 1.08h1.208zm-.806-2.185h.437l1.296 3.355h-.495l-.293-.792h-1.49l-.287.792h-.452l1.284-3.355zM84.378 25.045c0-.904.61-1.725 1.66-1.725.428 0 .705.094.952.256l-.223.338a1.246 1.246 0 0 0-.74-.219c-.774 0-1.172.637-1.172 1.341 0 .714.382 1.373 1.183 1.373.363 0 .62-.12.81-.281l.203.321c-.171.162-.55.342-1.024.342-1.062 0-1.649-.839-1.649-1.746M88.298 23.762h-.945v-.382h2.349v.382h-.945v2.97h-.46zM92.822 25.06c0-.728-.398-1.363-1.172-1.363-.776 0-1.194.626-1.194 1.355s.407 1.363 1.183 1.363c.774 0 1.183-.625 1.183-1.354m-2.843 0c0-.92.61-1.74 1.66-1.74 1.046 0 1.667.808 1.667 1.73 0 .914-.61 1.742-1.656 1.742-1.053 0-1.671-.816-1.671-1.732M95.56 24.859v-1.105h-.452c-.488 0-.72.18-.72.538 0 .355.216.567.688.567h.484zm-1.843 1.496h.052c.225 0 .36-.261.653-.686.146-.214.301-.426.414-.498v-.009c-.513-.036-.912-.317-.912-.866 0-.578.423-.916 1.137-.916h.951v3.353h-.452v-1.517h-.137c-.216.007-.351.282-.644.711-.396.587-.558.806-.875.806h-.175l-.012-.378zM100.93 26.733h-3.976V23.38h.457v2.97h1.359v-2.97h.454v2.97h1.36v-2.97h.456v2.97h.349l-.113 1.105h-.31zM102.087 23.38h1.766v.383h-1.314v1.01h1.154v.378h-1.154v1.199h1.35v.382h-1.802zM104.894 23.38h.428l.8 2.239c.095.272.151.438.208.612h.009a8.19 8.19 0 0 1 .202-.612l.806-2.239h.432l.452 3.352h-.457l-.277-2.103c-.031-.243-.045-.378-.056-.473h-.009c-.031.11-.072.25-.148.468l-.75 2.108h-.443l-.763-2.108c-.076-.218-.121-.358-.157-.468h-.009c-.011.115-.027.257-.052.484l-.256 2.092h-.423l.463-3.352z"/>
    </g>
</svg>
